<svg xmlns="http://www.w3.org/2000/svg" width="240" height="240" viewBox="0 0 128 128" shape-rendering="crispEdges"><title>dreammachine / PHASE SIGNAL pixel study</title><path fill="#00FCFA" d="M63 3h1v1h-1zM61 4h2v1h-2zM60 5h1v1h-1zM60 6h1v1h-1zM59 7h2v1h-2zM59 8h2v1h-2zM59 9h2v1h-2zM58 10h4v1h-4zM58 11h3v1h-3zM58 12h3v1h-3zM57 13h4v1h-4zM57 14h3v1h-3zM42 15h2v1h-2zM57 15h3v1h-3zM41 16h3v1h-3zM56 16h4v1h-4zM41 17h3v1h-3zM56 17h4v1h-4zM41 18h5v1h-5zM56 18h3v1h-3zM40 19h6v1h-6zM56 19h3v1h-3zM40 20h3v1h-3zM44 20h2v1h-2zM56 20h3v1h-3zM40 21h3v1h-3zM44 21h2v1h-2zM56 21h3v1h-3zM40 22h3v1h-3zM44 22h1v1h-1zM54 22h5v1h-5zM39 23h4v1h-4zM44 23h1v1h-1zM54 23h4v1h-4zM39 24h3v1h-3zM54 24h4v1h-4zM38 25h4v1h-4zM54 25h4v1h-4zM38 26h3v1h-3zM54 26h4v1h-4zM36 27h4v1h-4zM54 27h1v1h-1zM56 27h3v1h-3zM36 28h3v1h-3zM56 28h3v1h-3zM35 29h3v1h-3zM57 29h2v1h-2zM34 30h3v1h-3zM57 30h2v1h-2zM33 31h3v1h-3zM57 31h2v1h-2zM13 32h2v1h-2zM32 32h4v1h-4zM57 32h2v1h-2zM12 33h1v1h-1zM31 33h4v1h-4zM57 33h2v1h-2zM12 34h2v1h-2zM30 34h4v1h-4zM57 34h2v1h-2zM12 35h3v1h-3zM29 35h4v1h-4zM57 35h2v1h-2zM12 36h3v1h-3zM18 36h1v1h-1zM28 36h4v1h-4zM58 36h2v1h-2zM12 37h4v1h-4zM17 37h3v1h-3zM28 37h3v1h-3zM58 37h1v1h-1zM12 38h11v1h-11zM26 38h6v1h-6zM58 38h1v1h-1zM13 39h10v1h-10zM24 39h6v1h-6zM58 39h1v1h-1zM14 40h15v1h-15zM58 40h1v1h-1zM15 41h13v1h-13zM58 41h1v1h-1zM15 42h7v1h-7zM58 42h2v1h-2zM16 43h6v1h-6zM58 43h3v1h-3zM17 44h4v1h-4zM58 44h3v1h-3zM18 45h3v1h-3zM59 45h2v1h-2zM59 46h2v1h-2zM59 47h2v1h-2zM59 48h3v1h-3zM59 49h3v1h-3zM59 50h2v1h-2zM59 51h3v1h-3zM59 52h3v1h-3zM60 53h3v1h-3zM60 54h3v1h-3zM60 55h4v1h-4zM61 56h3v1h-3zM61 57h2v1h-2zM61 58h3v1h-3zM62 59h2v1h-2zM62 60h2v1h-2zM62 61h2v1h-2zM63 62h1v1h-1zM63 63h1v1h-1zM64 64h1v1h-1zM64 65h3v1h-3zM65 66h3v1h-3zM66 67h4v1h-4zM66 68h6v1h-6zM67 69h7v1h-7zM69 70h2v1h-2zM70 71h1v1h-1zM70 72h2v1h-2zM71 73h1v1h-1zM72 74h1v1h-1zM73 75h1v1h-1zM75 76h2v1h-2zM75 77h3v1h-3zM75 78h4v1h-4zM76 79h3v1h-3zM76 80h4v1h-4zM76 81h7v1h-7zM78 82h6v1h-6zM78 83h6v1h-6zM79 84h6v1h-6zM80 85h6v1h-6zM80 86h7v1h-7zM79 87h3v1h-3zM85 87h3v1h-3zM77 88h3v1h-3zM87 88h3v1h-3zM76 89h4v1h-4zM88 89h3v1h-3zM76 90h4v1h-4zM88 90h4v1h-4zM77 91h3v1h-3zM89 91h4v1h-4zM77 92h2v1h-2zM90 92h5v1h-5zM96 92h1v1h-1zM77 93h2v1h-2zM92 93h6v1h-6zM77 94h3v1h-3zM93 94h7v1h-7zM116 94h1v1h-1zM77 95h3v1h-3zM94 95h7v1h-7zM77 96h3v1h-3zM96 96h1v1h-1zM98 96h4v1h-4zM77 97h3v1h-3zM97 97h1v1h-1zM100 97h2v1h-2zM77 98h2v1h-2zM100 98h2v1h-2zM77 99h2v1h-2zM99 99h4v1h-4zM77 100h2v1h-2zM101 100h5v1h-5zM76 101h3v1h-3zM102 101h3v1h-3zM27 102h1v1h-1zM76 102h2v1h-2zM28 103h2v1h-2zM76 103h2v1h-2zM28 104h3v1h-3zM76 104h2v1h-2zM75 105h2v1h-2zM75 106h3v1h-3zM74 107h3v1h-3zM73 108h4v1h-4zM73 109h2v1h-2zM76 109h1v1h-1zM72 110h3v1h-3zM72 111h2v1h-2zM71 112h2v1h-2zM52 113h1v1h-1zM71 113h3v1h-3zM52 114h1v1h-1zM69 114h1v1h-1zM71 114h2v1h-2zM52 115h2v1h-2zM68 115h5v1h-5zM53 116h2v1h-2zM67 116h5v1h-5zM54 117h3v1h-3zM66 117h5v1h-5zM54 118h4v1h-4zM65 118h4v1h-4zM55 119h3v1h-3zM64 119h4v1h-4zM56 120h4v1h-4zM63 120h4v1h-4zM58 121h8v1h-8zM60 122h5v1h-5zM61 123h3v1h-3zM63 124h2v1h-2z"/><path fill="#4DFFF7" d="M63 4h1v1h-1zM61 5h3v1h-3zM61 6h3v1h-3zM61 7h2v1h-2zM61 8h2v1h-2zM61 9h2v1h-2zM61 11h3v1h-3zM61 12h2v1h-2zM61 13h2v1h-2zM60 14h3v1h-3zM60 15h3v1h-3zM40 16h1v1h-1zM60 16h3v1h-3zM39 17h2v1h-2zM60 17h3v1h-3zM37 18h4v1h-4zM59 18h4v1h-4zM37 19h3v1h-3zM59 19h4v1h-4zM37 20h3v1h-3zM59 20h4v1h-4zM37 21h3v1h-3zM59 21h4v1h-4zM37 22h3v1h-3zM59 22h3v1h-3zM36 23h3v1h-3zM58 23h4v1h-4zM36 24h3v1h-3zM58 24h3v1h-3zM62 24h1v1h-1zM35 25h3v1h-3zM58 25h3v1h-3zM62 25h1v1h-1zM34 26h4v1h-4zM58 26h5v1h-5zM33 27h3v1h-3zM59 27h4v1h-4zM32 28h4v1h-4zM59 28h4v1h-4zM31 29h4v1h-4zM59 29h4v1h-4zM16 30h2v1h-2zM31 30h3v1h-3zM59 30h4v1h-4zM14 31h5v1h-5zM29 31h4v1h-4zM59 31h3v1h-3zM15 32h3v1h-3zM28 32h4v1h-4zM59 32h3v1h-3zM13 33h6v1h-6zM25 33h6v1h-6zM59 33h3v1h-3zM14 34h8v1h-8zM24 34h6v1h-6zM59 34h3v1h-3zM15 35h14v1h-14zM59 35h3v1h-3zM15 36h3v1h-3zM19 36h9v1h-9zM60 36h2v1h-2zM16 37h1v1h-1zM20 37h8v1h-8zM59 37h3v1h-3zM23 38h3v1h-3zM59 38h3v1h-3zM23 39h1v1h-1zM59 39h3v1h-3zM59 40h3v1h-3zM59 41h3v1h-3zM60 42h2v1h-2zM61 43h1v1h-1zM61 44h2v1h-2zM61 45h2v1h-2zM61 46h2v1h-2zM61 47h2v1h-2zM62 48h2v1h-2zM62 49h2v1h-2zM61 50h3v1h-3zM62 51h2v1h-2zM62 52h2v1h-2zM63 53h1v1h-1zM63 54h1v1h-1zM63 57h1v1h-1zM82 87h3v1h-3zM80 88h7v1h-7zM80 89h8v1h-8zM80 90h8v1h-8zM80 91h9v1h-9zM79 92h11v1h-11zM79 93h13v1h-13zM80 94h13v1h-13zM80 95h4v1h-4zM90 95h4v1h-4zM80 96h3v1h-3zM91 96h5v1h-5zM97 96h1v1h-1zM80 97h3v1h-3zM92 97h5v1h-5zM98 97h2v1h-2zM79 98h3v1h-3zM94 98h6v1h-6zM79 99h3v1h-3zM95 99h4v1h-4zM79 100h2v1h-2zM98 100h3v1h-3zM79 101h2v1h-2zM99 101h3v1h-3zM78 102h3v1h-3zM99 102h4v1h-4zM78 103h2v1h-2zM100 103h1v1h-1zM31 104h1v1h-1zM78 104h2v1h-2zM30 105h4v1h-4zM77 105h3v1h-3zM32 106h3v1h-3zM78 106h2v1h-2zM77 107h3v1h-3zM77 108h2v1h-2zM75 109h1v1h-1zM77 109h2v1h-2zM75 110h3v1h-3zM74 111h4v1h-4zM73 112h3v1h-3zM49 113h3v1h-3zM74 113h2v1h-2zM50 114h2v1h-2zM73 114h2v1h-2zM49 115h3v1h-3zM73 115h2v1h-2zM50 116h3v1h-3zM72 116h2v1h-2zM51 117h3v1h-3zM71 117h3v1h-3zM53 118h1v1h-1zM69 118h4v1h-4zM54 119h1v1h-1zM68 119h3v1h-3zM67 120h4v1h-4zM66 121h4v1h-4zM65 122h3v1h-3zM64 123h3v1h-3z"/><path fill="#00C4FF" d="M58 6h2v1h-2zM56 7h3v1h-3zM54 8h5v1h-5zM54 9h5v1h-5zM53 10h5v1h-5zM49 11h1v1h-1zM52 11h6v1h-6zM47 12h3v1h-3zM52 12h6v1h-6zM46 13h11v1h-11zM44 14h13v1h-13zM44 15h13v1h-13zM44 16h12v1h-12zM44 17h12v1h-12zM46 18h10v1h-10zM46 19h10v1h-10zM43 20h1v1h-1zM46 20h10v1h-10zM43 21h1v1h-1zM46 21h10v1h-10zM43 22h1v1h-1zM45 22h9v1h-9zM43 23h1v1h-1zM45 23h9v1h-9zM42 24h12v1h-12zM42 25h4v1h-4zM47 25h7v1h-7zM41 26h4v1h-4zM49 26h5v1h-5zM40 27h4v1h-4zM52 27h2v1h-2zM55 27h1v1h-1zM39 28h4v1h-4zM54 28h2v1h-2zM38 29h5v1h-5zM54 29h3v1h-3zM37 30h4v1h-4zM54 30h3v1h-3zM36 31h4v1h-4zM54 31h3v1h-3zM36 32h3v1h-3zM54 32h3v1h-3zM11 33h1v1h-1zM35 33h3v1h-3zM54 33h3v1h-3zM11 34h1v1h-1zM34 34h4v1h-4zM54 34h3v1h-3zM11 35h1v1h-1zM33 35h5v1h-5zM53 35h1v1h-1zM55 35h2v1h-2zM11 36h1v1h-1zM32 36h3v1h-3zM36 36h1v1h-1zM53 36h1v1h-1zM55 36h3v1h-3zM11 37h1v1h-1zM31 37h3v1h-3zM35 37h1v1h-1zM55 37h3v1h-3zM11 38h1v1h-1zM32 38h1v1h-1zM55 38h3v1h-3zM11 39h2v1h-2zM30 39h4v1h-4zM56 39h2v1h-2zM11 40h3v1h-3zM29 40h4v1h-4zM56 40h2v1h-2zM11 41h4v1h-4zM28 41h4v1h-4zM56 41h2v1h-2zM11 42h4v1h-4zM22 42h9v1h-9zM56 42h2v1h-2zM11 43h5v1h-5zM22 43h5v1h-5zM28 43h2v1h-2zM56 43h2v1h-2zM12 44h5v1h-5zM21 44h5v1h-5zM27 44h2v1h-2zM56 44h2v1h-2zM13 45h5v1h-5zM21 45h3v1h-3zM27 45h1v1h-1zM56 45h3v1h-3zM15 46h8v1h-8zM57 46h2v1h-2zM15 47h6v1h-6zM57 47h2v1h-2zM15 48h8v1h-8zM57 48h2v1h-2zM17 49h5v1h-5zM55 49h1v1h-1zM57 49h2v1h-2zM57 50h2v1h-2zM57 51h2v1h-2zM57 52h2v1h-2zM57 53h3v1h-3zM58 54h2v1h-2zM58 55h2v1h-2zM58 56h3v1h-3zM58 57h3v1h-3zM59 58h2v1h-2zM59 59h3v1h-3zM60 60h2v1h-2zM60 61h2v1h-2zM61 62h2v1h-2zM61 63h2v1h-2zM61 64h3v1h-3zM62 65h2v1h-2zM62 66h3v1h-3zM63 67h3v1h-3zM63 68h3v1h-3zM64 69h3v1h-3zM64 70h5v1h-5zM71 70h4v1h-4zM66 71h4v1h-4zM71 71h6v1h-6zM65 72h5v1h-5zM72 72h7v1h-7zM67 73h4v1h-4zM72 73h9v1h-9zM70 74h2v1h-2zM73 74h8v1h-8zM71 75h2v1h-2zM74 75h7v1h-7zM73 76h2v1h-2zM77 76h4v1h-4zM74 77h1v1h-1zM78 77h4v1h-4zM74 78h1v1h-1zM79 78h3v1h-3zM75 79h1v1h-1zM79 79h4v1h-4zM75 80h1v1h-1zM80 80h5v1h-5zM83 81h3v1h-3zM76 82h2v1h-2zM84 82h2v1h-2zM76 83h2v1h-2zM84 83h3v1h-3zM76 84h3v1h-3zM85 84h4v1h-4zM76 85h4v1h-4zM86 85h4v1h-4zM75 86h5v1h-5zM87 86h4v1h-4zM75 87h4v1h-4zM88 87h5v1h-5zM75 88h2v1h-2zM90 88h4v1h-4zM74 89h2v1h-2zM91 89h6v1h-6zM74 90h2v1h-2zM92 90h6v1h-6zM75 91h2v1h-2zM93 91h7v1h-7zM75 92h2v1h-2zM95 92h1v1h-1zM97 92h4v1h-4zM75 93h2v1h-2zM98 93h4v1h-4zM114 93h1v1h-1zM75 94h2v1h-2zM100 94h3v1h-3zM114 94h2v1h-2zM75 95h2v1h-2zM101 95h5v1h-5zM114 95h1v1h-1zM75 96h2v1h-2zM102 96h5v1h-5zM75 97h2v1h-2zM102 97h8v1h-8zM111 97h1v1h-1zM75 98h2v1h-2zM102 98h8v1h-8zM74 99h3v1h-3zM103 99h5v1h-5zM74 100h3v1h-3zM25 101h2v1h-2zM74 101h2v1h-2zM25 102h2v1h-2zM74 102h2v1h-2zM27 103h1v1h-1zM74 103h2v1h-2zM73 104h3v1h-3zM73 105h2v1h-2zM73 106h2v1h-2zM71 107h3v1h-3zM71 108h2v1h-2zM70 109h3v1h-3zM70 110h2v1h-2zM54 111h1v1h-1zM69 111h3v1h-3zM52 112h3v1h-3zM68 112h3v1h-3zM53 113h3v1h-3zM58 113h2v1h-2zM66 113h5v1h-5zM53 114h4v1h-4zM58 114h11v1h-11zM70 114h1v1h-1zM54 115h14v1h-14zM55 116h12v1h-12zM57 117h9v1h-9zM58 118h7v1h-7zM58 119h6v1h-6zM60 120h3v1h-3z"/><path fill="#00A8ED" d="M63 7h1v1h-1zM63 8h1v1h-1zM63 9h1v1h-1zM62 10h2v1h-2zM63 12h1v1h-1zM63 13h1v1h-1zM63 14h1v1h-1zM63 15h1v1h-1zM63 16h1v1h-1zM63 17h1v1h-1zM63 18h1v1h-1zM35 19h2v1h-2zM63 19h1v1h-1zM35 20h2v1h-2zM63 20h1v1h-1zM34 21h3v1h-3zM63 21h1v1h-1zM34 22h3v1h-3zM62 22h2v1h-2zM33 23h3v1h-3zM62 23h2v1h-2zM32 24h4v1h-4zM61 24h1v1h-1zM63 24h1v1h-1zM32 25h3v1h-3zM61 25h1v1h-1zM63 25h1v1h-1zM31 26h3v1h-3zM63 26h1v1h-1zM21 27h1v1h-1zM31 27h2v1h-2zM63 27h1v1h-1zM24 28h1v1h-1zM29 28h3v1h-3zM63 28h1v1h-1zM18 29h3v1h-3zM25 29h2v1h-2zM28 29h3v1h-3zM63 29h1v1h-1zM18 30h13v1h-13zM63 30h1v1h-1zM19 31h10v1h-10zM62 31h2v1h-2zM18 32h10v1h-10zM62 32h2v1h-2zM19 33h6v1h-6zM62 33h2v1h-2zM22 34h2v1h-2zM62 34h2v1h-2zM62 35h2v1h-2zM62 36h2v1h-2zM62 37h2v1h-2zM62 38h2v1h-2zM62 39h2v1h-2zM62 40h2v1h-2zM62 41h2v1h-2zM62 42h2v1h-2zM62 43h2v1h-2zM63 44h1v1h-1zM63 45h1v1h-1zM63 46h1v1h-1zM63 47h1v1h-1zM84 95h6v1h-6zM83 96h8v1h-8zM83 97h9v1h-9zM82 98h4v1h-4zM92 98h2v1h-2zM82 99h3v1h-3zM93 99h2v1h-2zM81 100h3v1h-3zM93 100h5v1h-5zM81 101h2v1h-2zM95 101h4v1h-4zM81 102h2v1h-2zM96 102h3v1h-3zM80 103h2v1h-2zM97 103h3v1h-3zM80 104h2v1h-2zM98 104h1v1h-1zM80 105h3v1h-3zM80 106h2v1h-2zM34 107h3v1h-3zM80 107h2v1h-2zM35 108h4v1h-4zM79 108h3v1h-3zM37 109h4v1h-4zM79 109h2v1h-2zM39 110h3v1h-3zM78 110h3v1h-3zM41 111h3v1h-3zM78 111h2v1h-2zM42 112h4v1h-4zM76 112h2v1h-2zM44 113h5v1h-5zM76 113h2v1h-2zM46 114h4v1h-4zM75 114h2v1h-2zM48 115h1v1h-1zM75 115h2v1h-2zM49 116h1v1h-1zM74 116h2v1h-2zM74 117h2v1h-2zM73 118h1v1h-1zM71 119h2v1h-2zM71 120h1v1h-1z"/><path fill="#006EFF" d="M53 9h1v1h-1zM51 10h2v1h-2zM50 11h2v1h-2zM50 12h2v1h-2zM46 25h1v1h-1zM45 26h4v1h-4zM44 27h8v1h-8zM43 28h11v1h-11zM43 29h11v1h-11zM41 30h13v1h-13zM40 31h9v1h-9zM50 31h4v1h-4zM39 32h5v1h-5zM51 32h3v1h-3zM38 33h4v1h-4zM48 33h2v1h-2zM51 33h3v1h-3zM38 34h3v1h-3zM48 34h6v1h-6zM38 35h3v1h-3zM48 35h5v1h-5zM54 35h1v1h-1zM35 36h1v1h-1zM37 36h4v1h-4zM49 36h4v1h-4zM54 36h1v1h-1zM34 37h1v1h-1zM36 37h4v1h-4zM50 37h5v1h-5zM33 38h5v1h-5zM50 38h5v1h-5zM34 39h3v1h-3zM51 39h5v1h-5zM33 40h1v1h-1zM51 40h1v1h-1zM53 40h3v1h-3zM32 41h2v1h-2zM53 41h3v1h-3zM31 42h3v1h-3zM54 42h2v1h-2zM27 43h1v1h-1zM30 43h3v1h-3zM54 43h2v1h-2zM11 44h1v1h-1zM26 44h1v1h-1zM29 44h3v1h-3zM54 44h2v1h-2zM11 45h2v1h-2zM24 45h3v1h-3zM28 45h4v1h-4zM54 45h2v1h-2zM11 46h4v1h-4zM23 46h8v1h-8zM54 46h3v1h-3zM11 47h4v1h-4zM21 47h9v1h-9zM55 47h2v1h-2zM12 48h3v1h-3zM23 48h3v1h-3zM27 48h2v1h-2zM53 48h4v1h-4zM12 49h5v1h-5zM22 49h5v1h-5zM53 49h2v1h-2zM56 49h1v1h-1zM13 50h13v1h-13zM53 50h4v1h-4zM13 51h13v1h-13zM54 51h3v1h-3zM14 52h11v1h-11zM54 52h3v1h-3zM14 53h10v1h-10zM54 53h3v1h-3zM14 54h9v1h-9zM54 54h4v1h-4zM15 55h8v1h-8zM56 55h2v1h-2zM15 56h7v1h-7zM56 56h2v1h-2zM16 57h5v1h-5zM56 57h2v1h-2zM17 58h4v1h-4zM57 58h2v1h-2zM57 59h2v1h-2zM57 60h3v1h-3zM58 61h2v1h-2zM58 62h3v1h-3zM58 63h3v1h-3zM59 64h2v1h-2zM59 65h3v1h-3zM60 66h2v1h-2zM60 67h3v1h-3zM61 68h2v1h-2zM61 69h3v1h-3zM23 70h1v1h-1zM61 70h3v1h-3zM23 71h2v1h-2zM62 71h4v1h-4zM24 72h2v1h-2zM64 72h1v1h-1zM22 73h5v1h-5zM21 74h6v1h-6zM81 74h1v1h-1zM19 75h8v1h-8zM81 75h3v1h-3zM19 76h9v1h-9zM81 76h4v1h-4zM19 77h10v1h-10zM82 77h4v1h-4zM87 77h1v1h-1zM19 78h11v1h-11zM82 78h4v1h-4zM87 78h1v1h-1zM20 79h9v1h-9zM83 79h5v1h-5zM20 80h7v1h-7zM85 80h3v1h-3zM20 81h6v1h-6zM86 81h3v1h-3zM20 82h5v1h-5zM86 82h4v1h-4zM20 83h5v1h-5zM87 83h4v1h-4zM20 84h4v1h-4zM89 84h4v1h-4zM20 85h3v1h-3zM90 85h4v1h-4zM21 86h1v1h-1zM91 86h5v1h-5zM93 87h5v1h-5zM94 88h5v1h-5zM97 89h3v1h-3zM98 90h2v1h-2zM74 91h1v1h-1zM100 91h1v1h-1zM102 91h5v1h-5zM110 91h2v1h-2zM73 92h2v1h-2zM101 92h7v1h-7zM109 92h5v1h-5zM73 93h2v1h-2zM102 93h12v1h-12zM73 94h2v1h-2zM103 94h11v1h-11zM72 95h3v1h-3zM106 95h8v1h-8zM72 96h3v1h-3zM107 96h6v1h-6zM19 97h1v1h-1zM72 97h3v1h-3zM110 97h1v1h-1zM21 98h1v1h-1zM72 98h3v1h-3zM20 99h3v1h-3zM72 99h2v1h-2zM22 100h3v1h-3zM72 100h2v1h-2zM23 101h2v1h-2zM72 101h2v1h-2zM72 102h2v1h-2zM72 103h2v1h-2zM71 104h2v1h-2zM69 105h1v1h-1zM71 105h2v1h-2zM69 106h4v1h-4zM69 107h2v1h-2zM68 108h3v1h-3zM58 109h1v1h-1zM67 109h3v1h-3zM57 110h3v1h-3zM66 110h4v1h-4zM55 111h14v1h-14zM55 112h13v1h-13zM56 113h2v1h-2zM60 113h6v1h-6zM57 114h1v1h-1z"/><path fill="#0338FC" d="M34 20h1v1h-1zM32 21h2v1h-2zM30 22h4v1h-4zM30 23h3v1h-3zM28 24h4v1h-4zM25 25h1v1h-1zM27 25h5v1h-5zM23 26h8v1h-8zM22 27h9v1h-9zM20 28h4v1h-4zM25 28h4v1h-4zM21 29h4v1h-4zM27 29h1v1h-1zM86 98h6v1h-6zM85 99h8v1h-8zM84 100h9v1h-9zM83 101h12v1h-12zM83 102h4v1h-4zM91 102h5v1h-5zM82 103h4v1h-4zM88 103h9v1h-9zM82 104h6v1h-6zM93 104h5v1h-5zM83 105h4v1h-4zM95 105h3v1h-3zM82 106h4v1h-4zM82 107h3v1h-3zM82 108h2v1h-2zM81 109h2v1h-2zM81 110h2v1h-2zM80 111h1v1h-1zM78 112h3v1h-3zM78 113h2v1h-2zM77 114h2v1h-2zM77 115h2v1h-2zM76 116h2v1h-2zM76 117h1v1h-1zM74 118h1v1h-1z"/><path fill="#2103FA" d="M28 23h2v1h-2zM27 24h1v1h-1zM26 25h1v1h-1zM87 102h4v1h-4zM86 103h2v1h-2zM88 104h5v1h-5zM87 105h8v1h-8zM86 106h10v1h-10zM85 107h9v1h-9zM84 108h4v1h-4zM83 109h4v1h-4zM83 110h2v1h-2zM81 111h2v1h-2zM81 112h1v1h-1zM80 113h2v1h-2zM79 114h3v1h-3zM79 115h1v1h-1zM78 116h1v1h-1z"/><path fill="#0033FF" d="M49 31h1v1h-1zM44 32h7v1h-7zM42 33h6v1h-6zM50 33h1v1h-1zM41 34h7v1h-7zM41 35h7v1h-7zM41 36h8v1h-8zM40 37h5v1h-5zM47 37h3v1h-3zM38 38h12v1h-12zM37 39h6v1h-6zM46 39h1v1h-1zM49 39h2v1h-2zM34 40h7v1h-7zM50 40h1v1h-1zM52 40h1v1h-1zM34 41h3v1h-3zM51 41h2v1h-2zM34 42h2v1h-2zM51 42h3v1h-3zM33 43h2v1h-2zM51 43h3v1h-3zM32 44h2v1h-2zM51 44h3v1h-3zM32 45h1v1h-1zM52 45h2v1h-2zM31 46h2v1h-2zM52 46h2v1h-2zM30 47h3v1h-3zM50 47h5v1h-5zM11 48h1v1h-1zM26 48h1v1h-1zM29 48h4v1h-4zM51 48h2v1h-2zM11 49h1v1h-1zM27 49h5v1h-5zM51 49h2v1h-2zM11 50h2v1h-2zM26 50h5v1h-5zM51 50h2v1h-2zM11 51h2v1h-2zM26 51h3v1h-3zM51 51h3v1h-3zM11 52h3v1h-3zM25 52h4v1h-4zM52 52h2v1h-2zM11 53h3v1h-3zM24 53h4v1h-4zM52 53h2v1h-2zM11 54h3v1h-3zM23 54h5v1h-5zM11 55h4v1h-4zM23 55h4v1h-4zM54 55h2v1h-2zM11 56h4v1h-4zM22 56h6v1h-6zM55 56h1v1h-1zM11 57h5v1h-5zM21 57h6v1h-6zM55 57h1v1h-1zM11 58h6v1h-6zM21 58h6v1h-6zM55 58h2v1h-2zM12 59h15v1h-15zM56 59h1v1h-1zM12 60h15v1h-15zM56 60h1v1h-1zM13 61h13v1h-13zM56 61h2v1h-2zM13 62h1v1h-1zM15 62h10v1h-10zM56 62h2v1h-2zM13 63h12v1h-12zM56 63h2v1h-2zM14 64h1v1h-1zM16 64h10v1h-10zM57 64h2v1h-2zM14 65h1v1h-1zM16 65h10v1h-10zM57 65h2v1h-2zM15 66h11v1h-11zM58 66h2v1h-2zM15 67h11v1h-11zM58 67h2v1h-2zM15 68h12v1h-12zM59 68h2v1h-2zM16 69h13v1h-13zM59 69h2v1h-2zM16 70h7v1h-7zM24 70h5v1h-5zM59 70h2v1h-2zM16 71h7v1h-7zM25 71h4v1h-4zM60 71h2v1h-2zM14 72h1v1h-1zM16 72h8v1h-8zM26 72h4v1h-4zM14 73h8v1h-8zM27 73h3v1h-3zM14 74h7v1h-7zM27 74h4v1h-4zM15 75h4v1h-4zM27 75h5v1h-5zM15 76h4v1h-4zM28 76h4v1h-4zM85 76h1v1h-1zM15 77h4v1h-4zM29 77h2v1h-2zM86 77h1v1h-1zM15 78h4v1h-4zM86 78h1v1h-1zM88 78h1v1h-1zM16 79h4v1h-4zM88 79h3v1h-3zM16 80h4v1h-4zM88 80h4v1h-4zM17 81h3v1h-3zM89 81h4v1h-4zM18 82h2v1h-2zM90 82h4v1h-4zM18 83h2v1h-2zM91 83h5v1h-5zM19 84h1v1h-1zM93 84h4v1h-4zM17 85h1v1h-1zM19 85h1v1h-1zM94 85h4v1h-4zM17 86h4v1h-4zM96 86h3v1h-3zM17 87h4v1h-4zM98 87h2v1h-2zM16 88h5v1h-5zM99 88h3v1h-3zM105 88h2v1h-2zM16 89h4v1h-4zM100 89h8v1h-8zM16 90h4v1h-4zM100 90h10v1h-10zM16 91h3v1h-3zM101 91h1v1h-1zM107 91h3v1h-3zM11 92h8v1h-8zM108 92h1v1h-1zM11 93h7v1h-7zM11 94h7v1h-7zM72 94h1v1h-1zM13 95h4v1h-4zM15 96h3v1h-3zM71 96h1v1h-1zM16 97h3v1h-3zM70 97h2v1h-2zM18 98h3v1h-3zM70 98h2v1h-2zM70 99h2v1h-2zM69 100h3v1h-3zM68 101h1v1h-1zM70 101h2v1h-2zM68 102h4v1h-4zM67 103h5v1h-5zM66 104h5v1h-5zM65 105h4v1h-4zM70 105h1v1h-1zM63 106h6v1h-6zM61 107h8v1h-8zM60 108h8v1h-8zM59 109h8v1h-8zM60 110h6v1h-6z"/><path fill="#0017F7" d="M45 37h2v1h-2zM43 39h3v1h-3zM47 39h2v1h-2zM41 40h9v1h-9zM37 41h14v1h-14zM36 42h10v1h-10zM47 42h4v1h-4zM35 43h4v1h-4zM40 43h2v1h-2zM43 43h3v1h-3zM48 43h3v1h-3zM34 44h4v1h-4zM39 44h1v1h-1zM45 44h1v1h-1zM48 44h3v1h-3zM33 45h4v1h-4zM45 45h3v1h-3zM49 45h3v1h-3zM33 46h3v1h-3zM46 46h6v1h-6zM33 47h2v1h-2zM47 47h3v1h-3zM33 48h1v1h-1zM47 48h4v1h-4zM32 49h1v1h-1zM48 49h3v1h-3zM31 50h2v1h-2zM48 50h3v1h-3zM29 51h4v1h-4zM49 51h2v1h-2zM29 52h3v1h-3zM49 52h3v1h-3zM28 53h4v1h-4zM51 53h1v1h-1zM28 54h3v1h-3zM52 54h2v1h-2zM27 55h4v1h-4zM52 55h2v1h-2zM28 56h2v1h-2zM52 56h3v1h-3zM27 57h4v1h-4zM53 57h2v1h-2zM27 58h3v1h-3zM53 58h2v1h-2zM11 59h1v1h-1zM27 59h3v1h-3zM53 59h3v1h-3zM11 60h1v1h-1zM27 60h3v1h-3zM54 60h2v1h-2zM11 61h2v1h-2zM26 61h4v1h-4zM53 61h3v1h-3zM11 62h2v1h-2zM14 62h1v1h-1zM25 62h5v1h-5zM54 62h2v1h-2zM11 63h2v1h-2zM25 63h3v1h-3zM54 63h2v1h-2zM11 64h3v1h-3zM15 64h1v1h-1zM26 64h3v1h-3zM55 64h2v1h-2zM11 65h3v1h-3zM15 65h1v1h-1zM26 65h3v1h-3zM55 65h2v1h-2zM11 66h4v1h-4zM26 66h3v1h-3zM56 66h2v1h-2zM11 67h4v1h-4zM26 67h3v1h-3zM56 67h2v1h-2zM11 68h4v1h-4zM27 68h3v1h-3zM56 68h3v1h-3zM11 69h5v1h-5zM29 69h1v1h-1zM57 69h2v1h-2zM11 70h5v1h-5zM29 70h2v1h-2zM57 70h2v1h-2zM12 71h4v1h-4zM29 71h3v1h-3zM58 71h2v1h-2zM11 72h3v1h-3zM15 72h1v1h-1zM30 72h3v1h-3zM11 73h3v1h-3zM30 73h3v1h-3zM11 74h3v1h-3zM31 74h3v1h-3zM11 75h4v1h-4zM32 75h3v1h-3zM11 76h4v1h-4zM32 76h1v1h-1zM11 77h4v1h-4zM11 78h4v1h-4zM14 79h2v1h-2zM14 80h2v1h-2zM92 80h1v1h-1zM15 81h2v1h-2zM93 81h1v1h-1zM15 82h3v1h-3zM94 82h2v1h-2zM15 83h3v1h-3zM96 83h2v1h-2zM14 84h5v1h-5zM97 84h3v1h-3zM14 85h3v1h-3zM18 85h1v1h-1zM98 85h3v1h-3zM14 86h3v1h-3zM99 86h4v1h-4zM14 87h3v1h-3zM100 87h5v1h-5zM13 88h3v1h-3zM102 88h3v1h-3zM11 89h5v1h-5zM11 90h5v1h-5zM11 91h5v1h-5zM69 99h1v1h-1zM68 100h1v1h-1zM69 101h1v1h-1zM67 102h1v1h-1zM66 103h1v1h-1zM65 104h1v1h-1zM64 105h1v1h-1z"/><path fill="#0306A8" d="M46 42h1v1h-1zM39 43h1v1h-1zM42 43h1v1h-1zM46 43h2v1h-2zM38 44h1v1h-1zM40 44h5v1h-5zM46 44h2v1h-2zM37 45h8v1h-8zM48 45h1v1h-1zM36 46h10v1h-10zM35 47h12v1h-12zM34 48h7v1h-7zM43 48h4v1h-4zM33 49h9v1h-9zM44 49h4v1h-4zM33 50h3v1h-3zM38 50h1v1h-1zM44 50h4v1h-4zM33 51h3v1h-3zM46 51h3v1h-3zM32 52h3v1h-3zM48 52h1v1h-1zM32 53h3v1h-3zM49 53h2v1h-2zM31 54h3v1h-3zM49 54h3v1h-3zM31 55h3v1h-3zM50 55h2v1h-2zM30 56h3v1h-3zM50 56h2v1h-2zM31 57h2v1h-2zM50 57h3v1h-3zM30 58h3v1h-3zM51 58h2v1h-2zM30 59h3v1h-3zM51 59h2v1h-2zM30 60h3v1h-3zM50 60h4v1h-4zM30 61h3v1h-3zM51 61h2v1h-2zM30 62h3v1h-3zM51 62h3v1h-3zM28 63h5v1h-5zM52 63h2v1h-2zM29 64h4v1h-4zM52 64h3v1h-3zM29 65h3v1h-3zM53 65h2v1h-2zM29 66h3v1h-3zM53 66h3v1h-3zM29 67h4v1h-4zM53 67h3v1h-3zM30 68h3v1h-3zM54 68h2v1h-2zM30 69h3v1h-3zM54 69h3v1h-3zM31 70h3v1h-3zM55 70h2v1h-2zM11 71h1v1h-1zM32 71h2v1h-2zM57 71h1v1h-1zM33 72h3v1h-3zM33 73h3v1h-3zM34 74h3v1h-3zM11 79h3v1h-3zM11 80h3v1h-3zM11 81h4v1h-4zM11 82h4v1h-4zM11 83h4v1h-4zM11 84h3v1h-3zM11 85h3v1h-3zM11 86h3v1h-3zM11 87h3v1h-3zM11 88h2v1h-2z"/><path fill="#010540" d="M41 48h2v1h-2zM42 49h2v1h-2zM36 50h2v1h-2zM39 50h5v1h-5zM36 51h10v1h-10zM35 52h13v1h-13zM35 53h9v1h-9zM45 53h4v1h-4zM34 54h4v1h-4zM39 54h5v1h-5zM46 54h3v1h-3zM34 55h4v1h-4zM41 55h3v1h-3zM46 55h4v1h-4zM33 56h5v1h-5zM43 56h1v1h-1zM47 56h3v1h-3zM33 57h4v1h-4zM47 57h3v1h-3zM33 58h4v1h-4zM48 58h3v1h-3zM33 59h3v1h-3zM47 59h4v1h-4zM33 60h4v1h-4zM48 60h2v1h-2zM33 61h4v1h-4zM48 61h3v1h-3zM33 62h3v1h-3zM49 62h2v1h-2zM33 63h3v1h-3zM49 63h3v1h-3zM33 64h3v1h-3zM50 64h2v1h-2zM32 65h5v1h-5zM50 65h3v1h-3zM32 66h5v1h-5zM49 66h4v1h-4zM33 67h4v1h-4zM50 67h3v1h-3zM33 68h4v1h-4zM50 68h4v1h-4zM33 69h5v1h-5zM51 69h3v1h-3zM34 70h4v1h-4zM51 70h4v1h-4zM34 71h4v1h-4zM36 72h3v1h-3zM36 73h3v1h-3z"/><path fill="#B3FF03" d="M44 53h1v1h-1zM38 54h1v1h-1zM44 54h2v1h-2zM38 55h3v1h-3zM44 55h2v1h-2zM38 56h5v1h-5zM44 56h3v1h-3zM37 57h10v1h-10zM37 58h11v1h-11zM36 59h4v1h-4zM44 59h3v1h-3zM37 60h2v1h-2zM44 60h4v1h-4zM37 61h3v1h-3zM44 61h4v1h-4zM36 62h4v1h-4zM44 62h5v1h-5zM36 63h4v1h-4zM45 63h4v1h-4zM36 64h4v1h-4zM45 64h5v1h-5zM37 65h3v1h-3zM45 65h5v1h-5zM37 66h3v1h-3zM45 66h4v1h-4zM37 67h3v1h-3zM46 67h4v1h-4zM37 68h3v1h-3zM46 68h4v1h-4zM38 69h3v1h-3zM47 69h4v1h-4zM38 70h3v1h-3zM47 70h4v1h-4zM38 71h3v1h-3zM48 71h1v1h-1zM39 72h3v1h-3z"/><path fill="#0D1CFA" d="M40 59h4v1h-4zM39 60h5v1h-5zM40 61h4v1h-4zM40 62h4v1h-4zM40 63h5v1h-5zM40 64h5v1h-5zM40 65h5v1h-5zM40 66h5v1h-5zM40 67h6v1h-6zM40 68h6v1h-6zM41 69h6v1h-6zM41 70h6v1h-6zM41 71h7v1h-7zM42 72h1v1h-1z"/><path fill="#010319" d="M49 71h5v1h-5zM48 72h3v1h-3zM54 72h3v1h-3zM63 72h1v1h-1zM39 73h3v1h-3zM48 73h3v1h-3zM54 73h3v1h-3zM63 73h3v1h-3zM39 74h3v1h-3zM48 74h3v1h-3zM54 74h3v1h-3zM63 74h3v1h-3zM35 75h1v1h-1zM42 75h6v1h-6zM54 75h3v1h-3zM66 75h3v1h-3zM33 76h3v1h-3zM42 76h6v1h-6zM54 76h3v1h-3zM66 76h3v1h-3zM33 77h3v1h-3zM42 77h6v1h-6zM54 77h3v1h-3zM66 77h3v1h-3zM33 78h3v1h-3zM42 78h6v1h-6zM54 78h3v1h-3zM60 78h6v1h-6zM69 78h3v1h-3zM33 79h3v1h-3zM42 79h6v1h-6zM54 79h3v1h-3zM60 79h6v1h-6zM69 79h3v1h-3zM33 80h3v1h-3zM42 80h6v1h-6zM54 80h3v1h-3zM60 80h6v1h-6zM69 80h3v1h-3zM26 81h1v1h-1zM33 81h3v1h-3zM42 81h3v1h-3zM48 81h6v1h-6zM57 81h9v1h-9zM72 81h3v1h-3zM25 82h2v1h-2zM33 82h3v1h-3zM42 82h3v1h-3zM48 82h6v1h-6zM57 82h9v1h-9zM72 82h3v1h-3zM25 83h2v1h-2zM33 83h3v1h-3zM42 83h3v1h-3zM48 83h6v1h-6zM57 83h9v1h-9zM72 83h3v1h-3zM24 84h3v1h-3zM30 84h3v1h-3zM36 84h6v1h-6zM48 84h6v1h-6zM57 84h6v1h-6zM66 84h3v1h-3zM75 84h1v1h-1zM23 85h4v1h-4zM30 85h3v1h-3zM36 85h6v1h-6zM48 85h6v1h-6zM57 85h6v1h-6zM66 85h3v1h-3zM75 85h1v1h-1zM22 86h5v1h-5zM30 86h3v1h-3zM36 86h6v1h-6zM48 86h6v1h-6zM57 86h6v1h-6zM66 86h3v1h-3zM27 87h3v1h-3zM36 87h6v1h-6zM48 87h6v1h-6zM60 87h6v1h-6zM69 87h3v1h-3zM27 88h3v1h-3zM36 88h6v1h-6zM48 88h6v1h-6zM60 88h6v1h-6zM69 88h3v1h-3zM20 89h1v1h-1zM27 89h3v1h-3zM36 89h6v1h-6zM48 89h6v1h-6zM60 89h6v1h-6zM69 89h3v1h-3zM20 90h1v1h-1zM27 90h3v1h-3zM36 90h3v1h-3zM42 90h6v1h-6zM54 90h3v1h-3zM60 90h6v1h-6zM72 90h2v1h-2zM19 91h2v1h-2zM27 91h3v1h-3zM36 91h3v1h-3zM42 91h6v1h-6zM54 91h3v1h-3zM60 91h6v1h-6zM72 91h2v1h-2zM19 92h2v1h-2zM27 92h3v1h-3zM36 92h3v1h-3zM42 92h6v1h-6zM54 92h3v1h-3zM60 92h6v1h-6zM72 92h1v1h-1zM21 93h6v1h-6zM30 93h6v1h-6zM42 93h6v1h-6zM54 93h3v1h-3zM66 93h3v1h-3zM72 93h1v1h-1zM21 94h6v1h-6zM30 94h6v1h-6zM42 94h6v1h-6zM54 94h3v1h-3zM66 94h3v1h-3zM21 95h6v1h-6zM30 95h6v1h-6zM42 95h6v1h-6zM54 95h3v1h-3zM66 95h3v1h-3zM21 96h6v1h-6zM30 96h6v1h-6zM39 96h3v1h-3zM48 96h3v1h-3zM57 96h6v1h-6zM66 96h5v1h-5zM21 97h6v1h-6zM30 97h6v1h-6zM39 97h3v1h-3zM48 97h3v1h-3zM57 97h6v1h-6zM66 97h4v1h-4zM22 98h5v1h-5zM30 98h6v1h-6zM39 98h3v1h-3zM48 98h3v1h-3zM57 98h6v1h-6zM66 98h4v1h-4zM27 99h3v1h-3zM36 99h6v1h-6zM48 99h3v1h-3zM54 99h3v1h-3zM60 99h3v1h-3zM27 100h3v1h-3zM36 100h6v1h-6zM48 100h3v1h-3zM54 100h3v1h-3zM60 100h3v1h-3zM27 101h3v1h-3zM36 101h6v1h-6zM48 101h3v1h-3zM54 101h3v1h-3zM60 101h3v1h-3zM30 102h6v1h-6zM42 102h3v1h-3zM51 102h6v1h-6zM60 102h6v1h-6zM30 103h6v1h-6zM42 103h3v1h-3zM51 103h6v1h-6zM60 103h6v1h-6zM32 104h4v1h-4zM42 104h3v1h-3zM51 104h6v1h-6zM60 104h5v1h-5zM36 105h3v1h-3zM45 105h6v1h-6zM60 105h4v1h-4zM36 106h3v1h-3zM45 106h6v1h-6zM60 106h3v1h-3zM37 107h2v1h-2zM45 107h6v1h-6zM60 107h1v1h-1zM39 108h6v1h-6zM51 108h6v1h-6zM41 109h4v1h-4zM51 109h6v1h-6zM42 110h3v1h-3zM51 110h6v1h-6zM45 111h9v1h-9zM46 112h6v1h-6z"/><path fill="#FAFEFD" d="M54 71h3v1h-3zM43 72h5v1h-5zM51 72h3v1h-3zM57 72h6v1h-6zM42 73h6v1h-6zM51 73h3v1h-3zM57 73h6v1h-6zM66 73h1v1h-1zM37 74h2v1h-2zM42 74h6v1h-6zM51 74h3v1h-3zM57 74h6v1h-6zM66 74h4v1h-4zM36 75h6v1h-6zM48 75h6v1h-6zM57 75h9v1h-9zM69 75h2v1h-2zM36 76h6v1h-6zM48 76h6v1h-6zM57 76h9v1h-9zM69 76h4v1h-4zM31 77h2v1h-2zM36 77h6v1h-6zM48 77h6v1h-6zM57 77h9v1h-9zM69 77h5v1h-5zM30 78h3v1h-3zM36 78h6v1h-6zM48 78h6v1h-6zM57 78h3v1h-3zM66 78h3v1h-3zM72 78h2v1h-2zM29 79h4v1h-4zM36 79h6v1h-6zM48 79h6v1h-6zM57 79h3v1h-3zM66 79h3v1h-3zM72 79h3v1h-3zM27 80h6v1h-6zM36 80h6v1h-6zM48 80h6v1h-6zM57 80h3v1h-3zM66 80h3v1h-3zM72 80h3v1h-3zM27 81h6v1h-6zM36 81h6v1h-6zM45 81h3v1h-3zM54 81h3v1h-3zM66 81h6v1h-6zM75 81h1v1h-1zM27 82h6v1h-6zM36 82h6v1h-6zM45 82h3v1h-3zM54 82h3v1h-3zM66 82h6v1h-6zM75 82h1v1h-1zM27 83h6v1h-6zM36 83h6v1h-6zM45 83h3v1h-3zM54 83h3v1h-3zM66 83h6v1h-6zM75 83h1v1h-1zM27 84h3v1h-3zM33 84h3v1h-3zM42 84h6v1h-6zM54 84h3v1h-3zM63 84h3v1h-3zM69 84h6v1h-6zM27 85h3v1h-3zM33 85h3v1h-3zM42 85h6v1h-6zM54 85h3v1h-3zM63 85h3v1h-3zM69 85h6v1h-6zM27 86h3v1h-3zM33 86h3v1h-3zM42 86h6v1h-6zM54 86h3v1h-3zM63 86h3v1h-3zM69 86h6v1h-6zM21 87h6v1h-6zM30 87h6v1h-6zM42 87h6v1h-6zM54 87h6v1h-6zM66 87h3v1h-3zM72 87h3v1h-3zM21 88h6v1h-6zM30 88h6v1h-6zM42 88h6v1h-6zM54 88h6v1h-6zM66 88h3v1h-3zM72 88h3v1h-3zM21 89h6v1h-6zM30 89h6v1h-6zM42 89h6v1h-6zM54 89h6v1h-6zM66 89h3v1h-3zM72 89h2v1h-2zM21 90h6v1h-6zM30 90h6v1h-6zM39 90h3v1h-3zM48 90h6v1h-6zM57 90h3v1h-3zM66 90h6v1h-6zM21 91h6v1h-6zM30 91h6v1h-6zM39 91h3v1h-3zM48 91h6v1h-6zM57 91h3v1h-3zM66 91h6v1h-6zM21 92h6v1h-6zM30 92h6v1h-6zM39 92h3v1h-3zM48 92h6v1h-6zM57 92h3v1h-3zM66 92h6v1h-6zM18 93h3v1h-3zM27 93h3v1h-3zM36 93h6v1h-6zM48 93h6v1h-6zM57 93h9v1h-9zM69 93h3v1h-3zM18 94h3v1h-3zM27 94h3v1h-3zM36 94h6v1h-6zM48 94h6v1h-6zM57 94h9v1h-9zM69 94h3v1h-3zM17 95h4v1h-4zM27 95h3v1h-3zM36 95h6v1h-6zM48 95h6v1h-6zM57 95h9v1h-9zM69 95h3v1h-3zM18 96h3v1h-3zM27 96h3v1h-3zM36 96h3v1h-3zM42 96h6v1h-6zM51 96h6v1h-6zM63 96h3v1h-3zM20 97h1v1h-1zM27 97h3v1h-3zM36 97h3v1h-3zM42 97h6v1h-6zM51 97h6v1h-6zM63 97h3v1h-3zM27 98h3v1h-3zM36 98h3v1h-3zM42 98h6v1h-6zM51 98h6v1h-6zM63 98h3v1h-3zM23 99h4v1h-4zM30 99h6v1h-6zM42 99h6v1h-6zM51 99h3v1h-3zM57 99h3v1h-3zM63 99h6v1h-6zM25 100h2v1h-2zM30 100h6v1h-6zM42 100h6v1h-6zM51 100h3v1h-3zM57 100h3v1h-3zM63 100h5v1h-5zM30 101h6v1h-6zM42 101h6v1h-6zM51 101h3v1h-3zM57 101h3v1h-3zM63 101h5v1h-5zM28 102h2v1h-2zM36 102h6v1h-6zM45 102h6v1h-6zM57 102h3v1h-3zM66 102h1v1h-1zM36 103h6v1h-6zM45 103h6v1h-6zM57 103h3v1h-3zM36 104h6v1h-6zM45 104h6v1h-6zM57 104h3v1h-3zM34 105h2v1h-2zM39 105h6v1h-6zM51 105h9v1h-9zM35 106h1v1h-1zM39 106h6v1h-6zM51 106h9v1h-9zM39 107h6v1h-6zM51 107h9v1h-9zM45 108h6v1h-6zM57 108h3v1h-3zM45 109h6v1h-6zM57 109h1v1h-1zM45 110h6v1h-6zM44 111h1v1h-1z"/><path fill="#9C00FF" d="M88 108h4v1h-4zM87 109h4v1h-4zM85 110h4v1h-4zM83 111h4v1h-4zM82 112h4v1h-4zM82 113h2v1h-2z"/></svg>