<svg xmlns="http://www.w3.org/2000/svg" width="240" height="240" viewBox="0 0 128 128" shape-rendering="crispEdges"><title>langsmith / PHASE SIGNAL pixel study</title><path fill="#4DFFF7" d="M28 33h3v1h-3zM59 33h3v1h-3zM89 33h11v1h-11zM24 34h6v1h-6zM59 34h3v1h-3zM89 34h5v1h-5zM96 34h4v1h-4zM102 34h2v1h-2zM21 35h8v1h-8zM59 35h3v1h-3zM88 35h4v1h-4zM102 35h5v1h-5zM19 36h9v1h-9zM60 36h2v1h-2zM87 36h4v1h-4zM103 36h5v1h-5zM20 37h8v1h-8zM59 37h3v1h-3zM87 37h3v1h-3zM104 37h4v1h-4zM23 38h3v1h-3zM59 38h3v1h-3zM86 38h4v1h-4zM104 38h3v1h-3zM23 39h1v1h-1zM59 39h3v1h-3zM85 39h4v1h-4zM104 39h3v1h-3zM59 40h3v1h-3zM85 40h2v1h-2zM104 40h4v1h-4zM59 41h3v1h-3zM84 41h3v1h-3zM105 41h3v1h-3zM60 42h2v1h-2zM82 42h4v1h-4zM105 42h4v1h-4zM61 43h1v1h-1zM82 43h3v1h-3zM106 43h4v1h-4zM61 44h2v1h-2zM81 44h3v1h-3zM105 44h5v1h-5zM117 44h1v1h-1zM61 45h2v1h-2zM105 45h7v1h-7zM115 45h3v1h-3zM61 46h2v1h-2zM106 46h11v1h-11zM61 47h2v1h-2zM107 47h10v1h-10zM62 48h2v1h-2zM81 48h1v1h-1zM107 48h10v1h-10zM62 49h2v1h-2zM80 49h2v1h-2zM108 49h7v1h-7zM61 50h3v1h-3zM80 50h1v1h-1zM62 51h3v1h-3zM62 52h4v1h-4zM63 53h4v1h-4zM63 54h3v1h-3zM64 55h2v1h-2zM64 56h3v1h-3zM63 57h4v1h-4zM74 57h1v1h-1zM64 58h4v1h-4zM73 58h1v1h-1zM65 59h4v1h-4zM72 59h2v1h-2zM65 60h9v1h-9zM66 61h8v1h-8zM67 62h7v1h-7zM68 63h6v1h-6zM68 64h1v1h-1zM82 87h3v1h-3zM80 88h7v1h-7zM80 89h8v1h-8zM80 90h8v1h-8zM80 91h9v1h-9zM79 92h11v1h-11zM79 93h13v1h-13z"/><path fill="#00FCFA" d="M31 33h4v1h-4zM57 33h2v1h-2zM30 34h4v1h-4zM57 34h2v1h-2zM94 34h2v1h-2zM100 34h2v1h-2zM29 35h4v1h-4zM57 35h2v1h-2zM92 35h10v1h-10zM28 36h4v1h-4zM58 36h2v1h-2zM91 36h12v1h-12zM18 37h2v1h-2zM28 37h3v1h-3zM58 37h1v1h-1zM90 37h4v1h-4zM95 37h9v1h-9zM16 38h7v1h-7zM26 38h6v1h-6zM58 38h1v1h-1zM90 38h2v1h-2zM98 38h6v1h-6zM15 39h8v1h-8zM24 39h6v1h-6zM58 39h1v1h-1zM89 39h2v1h-2zM100 39h4v1h-4zM14 40h15v1h-15zM58 40h1v1h-1zM87 40h3v1h-3zM100 40h4v1h-4zM15 41h13v1h-13zM58 41h1v1h-1zM87 41h2v1h-2zM99 41h6v1h-6zM15 42h7v1h-7zM58 42h2v1h-2zM86 42h2v1h-2zM98 42h7v1h-7zM16 43h6v1h-6zM58 43h3v1h-3zM85 43h3v1h-3zM99 43h1v1h-1zM101 43h5v1h-5zM17 44h4v1h-4zM58 44h3v1h-3zM84 44h3v1h-3zM102 44h3v1h-3zM18 45h3v1h-3zM59 45h2v1h-2zM86 45h1v1h-1zM102 45h3v1h-3zM118 45h1v1h-1zM59 46h2v1h-2zM104 46h2v1h-2zM118 46h2v1h-2zM59 47h2v1h-2zM83 47h4v1h-4zM104 47h3v1h-3zM118 47h2v1h-2zM59 48h3v1h-3zM82 48h4v1h-4zM105 48h2v1h-2zM119 48h2v1h-2zM59 49h3v1h-3zM82 49h3v1h-3zM104 49h4v1h-4zM115 49h2v1h-2zM59 50h2v1h-2zM81 50h4v1h-4zM104 50h12v1h-12zM59 51h3v1h-3zM81 51h3v1h-3zM104 51h2v1h-2zM108 51h8v1h-8zM59 52h3v1h-3zM81 52h2v1h-2zM109 52h7v1h-7zM60 53h3v1h-3zM81 53h2v1h-2zM110 53h6v1h-6zM60 54h3v1h-3zM81 54h1v1h-1zM110 54h7v1h-7zM60 55h4v1h-4zM110 55h3v1h-3zM116 55h1v1h-1zM61 56h3v1h-3zM116 56h1v1h-1zM61 57h2v1h-2zM75 57h2v1h-2zM61 58h3v1h-3zM74 58h4v1h-4zM62 59h3v1h-3zM74 59h4v1h-4zM62 60h3v1h-3zM74 60h4v1h-4zM62 61h4v1h-4zM74 61h3v1h-3zM63 62h4v1h-4zM74 62h3v1h-3zM63 63h5v1h-5zM74 63h5v1h-5zM64 64h4v1h-4zM69 64h9v1h-9zM64 65h14v1h-14zM65 66h13v1h-13zM66 67h12v1h-12zM66 68h12v1h-12zM67 69h10v1h-10zM69 70h2v1h-2zM70 71h1v1h-1zM70 72h2v1h-2zM71 73h1v1h-1zM78 78h1v1h-1zM78 79h1v1h-1zM77 80h3v1h-3zM117 80h1v1h-1zM76 81h7v1h-7zM117 81h2v1h-2zM78 82h6v1h-6zM117 82h1v1h-1zM78 83h6v1h-6zM117 83h1v1h-1zM79 84h6v1h-6zM80 85h6v1h-6zM80 86h7v1h-7zM79 87h3v1h-3zM85 87h3v1h-3zM77 88h3v1h-3zM87 88h3v1h-3zM76 89h4v1h-4zM88 89h3v1h-3zM76 90h4v1h-4zM88 90h4v1h-4zM77 91h3v1h-3zM89 91h4v1h-4zM77 92h2v1h-2zM90 92h5v1h-5zM96 92h1v1h-1zM77 93h2v1h-2zM92 93h6v1h-6z"/><path fill="#00C4FF" d="M35 33h3v1h-3zM54 33h3v1h-3zM34 34h4v1h-4zM54 34h3v1h-3zM33 35h5v1h-5zM53 35h1v1h-1zM55 35h2v1h-2zM32 36h3v1h-3zM36 36h1v1h-1zM53 36h1v1h-1zM55 36h3v1h-3zM31 37h3v1h-3zM35 37h1v1h-1zM55 37h3v1h-3zM94 37h1v1h-1zM32 38h1v1h-1zM55 38h3v1h-3zM92 38h6v1h-6zM30 39h4v1h-4zM56 39h2v1h-2zM91 39h9v1h-9zM29 40h4v1h-4zM56 40h2v1h-2zM90 40h10v1h-10zM12 41h3v1h-3zM28 41h4v1h-4zM56 41h2v1h-2zM89 41h10v1h-10zM11 42h4v1h-4zM22 42h9v1h-9zM56 42h2v1h-2zM88 42h10v1h-10zM11 43h5v1h-5zM22 43h5v1h-5zM28 43h2v1h-2zM56 43h2v1h-2zM88 43h11v1h-11zM100 43h1v1h-1zM12 44h5v1h-5zM21 44h5v1h-5zM27 44h2v1h-2zM56 44h2v1h-2zM87 44h5v1h-5zM93 44h9v1h-9zM13 45h5v1h-5zM21 45h3v1h-3zM27 45h1v1h-1zM56 45h3v1h-3zM87 45h3v1h-3zM93 45h2v1h-2zM97 45h5v1h-5zM15 46h8v1h-8zM57 46h2v1h-2zM88 46h1v1h-1zM97 46h7v1h-7zM15 47h6v1h-6zM57 47h2v1h-2zM87 47h1v1h-1zM97 47h7v1h-7zM15 48h8v1h-8zM57 48h2v1h-2zM86 48h1v1h-1zM97 48h2v1h-2zM100 48h5v1h-5zM17 49h5v1h-5zM55 49h1v1h-1zM57 49h2v1h-2zM85 49h1v1h-1zM101 49h3v1h-3zM120 49h2v1h-2zM57 50h2v1h-2zM85 50h1v1h-1zM103 50h1v1h-1zM120 50h2v1h-2zM57 51h2v1h-2zM84 51h2v1h-2zM103 51h1v1h-1zM106 51h2v1h-2zM121 51h1v1h-1zM57 52h2v1h-2zM83 52h3v1h-3zM103 52h6v1h-6zM57 53h3v1h-3zM83 53h3v1h-3zM104 53h6v1h-6zM121 53h1v1h-1zM58 54h2v1h-2zM82 54h4v1h-4zM105 54h5v1h-5zM58 55h2v1h-2zM81 55h4v1h-4zM105 55h5v1h-5zM113 55h3v1h-3zM58 56h3v1h-3zM82 56h2v1h-2zM106 56h10v1h-10zM58 57h3v1h-3zM83 57h1v1h-1zM107 57h11v1h-11zM59 58h2v1h-2zM105 58h14v1h-14zM59 59h3v1h-3zM78 59h1v1h-1zM106 59h14v1h-14zM60 60h2v1h-2zM78 60h2v1h-2zM107 60h12v1h-12zM60 61h2v1h-2zM77 61h4v1h-4zM107 61h3v1h-3zM111 61h8v1h-8zM61 62h2v1h-2zM77 62h5v1h-5zM108 62h2v1h-2zM111 62h8v1h-8zM61 63h2v1h-2zM79 63h2v1h-2zM109 63h10v1h-10zM61 64h3v1h-3zM78 64h3v1h-3zM109 64h10v1h-10zM62 65h2v1h-2zM78 65h3v1h-3zM110 65h9v1h-9zM62 66h3v1h-3zM78 66h2v1h-2zM110 66h9v1h-9zM63 67h3v1h-3zM78 67h1v1h-1zM111 67h8v1h-8zM63 68h3v1h-3zM111 68h8v1h-8zM64 69h3v1h-3zM111 69h9v1h-9zM64 70h5v1h-5zM71 70h5v1h-5zM111 70h9v1h-9zM66 71h4v1h-4zM71 71h4v1h-4zM112 71h9v1h-9zM65 72h5v1h-5zM72 72h2v1h-2zM112 72h10v1h-10zM67 73h4v1h-4zM72 73h1v1h-1zM112 73h8v1h-8zM70 74h2v1h-2zM113 74h8v1h-8zM69 75h2v1h-2zM80 75h1v1h-1zM113 75h9v1h-9zM69 76h1v1h-1zM80 76h1v1h-1zM113 76h9v1h-9zM72 77h1v1h-1zM79 77h3v1h-3zM114 77h8v1h-8zM71 78h3v1h-3zM79 78h3v1h-3zM114 78h7v1h-7zM72 79h3v1h-3zM79 79h4v1h-4zM114 79h6v1h-6zM80 80h5v1h-5zM114 80h3v1h-3zM118 80h2v1h-2zM75 81h1v1h-1zM83 81h3v1h-3zM113 81h4v1h-4zM72 82h6v1h-6zM84 82h2v1h-2zM114 82h3v1h-3zM74 83h1v1h-1zM76 83h2v1h-2zM84 83h3v1h-3zM114 83h3v1h-3zM76 84h3v1h-3zM85 84h4v1h-4zM115 84h2v1h-2zM76 85h4v1h-4zM86 85h4v1h-4zM75 86h5v1h-5zM87 86h4v1h-4zM75 87h4v1h-4zM88 87h5v1h-5zM75 88h2v1h-2zM90 88h4v1h-4zM74 89h2v1h-2zM91 89h6v1h-6zM74 90h2v1h-2zM92 90h6v1h-6zM25 91h3v1h-3zM75 91h2v1h-2zM93 91h7v1h-7zM25 92h13v1h-13zM39 92h2v1h-2zM75 92h2v1h-2zM95 92h1v1h-1zM97 92h4v1h-4zM28 93h11v1h-11zM41 93h1v1h-1zM75 93h2v1h-2zM98 93h2v1h-2z"/><path fill="#006EFF" d="M38 33h4v1h-4zM48 33h2v1h-2zM51 33h3v1h-3zM38 34h3v1h-3zM48 34h6v1h-6zM38 35h3v1h-3zM48 35h5v1h-5zM54 35h1v1h-1zM35 36h1v1h-1zM37 36h4v1h-4zM49 36h4v1h-4zM54 36h1v1h-1zM34 37h1v1h-1zM36 37h4v1h-4zM50 37h5v1h-5zM33 38h5v1h-5zM50 38h5v1h-5zM34 39h3v1h-3zM51 39h5v1h-5zM33 40h1v1h-1zM51 40h1v1h-1zM53 40h3v1h-3zM32 41h2v1h-2zM53 41h3v1h-3zM31 42h3v1h-3zM54 42h2v1h-2zM10 43h1v1h-1zM27 43h1v1h-1zM54 43h2v1h-2zM10 44h2v1h-2zM26 44h1v1h-1zM54 44h2v1h-2zM92 44h1v1h-1zM9 45h4v1h-4zM24 45h3v1h-3zM54 45h2v1h-2zM90 45h3v1h-3zM10 46h5v1h-5zM23 46h5v1h-5zM54 46h3v1h-3zM89 46h4v1h-4zM11 47h4v1h-4zM21 47h6v1h-6zM55 47h2v1h-2zM88 47h3v1h-3zM12 48h3v1h-3zM23 48h3v1h-3zM53 48h4v1h-4zM87 48h3v1h-3zM96 48h1v1h-1zM99 48h1v1h-1zM12 49h5v1h-5zM22 49h4v1h-4zM53 49h2v1h-2zM56 49h1v1h-1zM86 49h3v1h-3zM95 49h6v1h-6zM13 50h12v1h-12zM53 50h4v1h-4zM86 50h3v1h-3zM94 50h7v1h-7zM13 51h12v1h-12zM54 51h3v1h-3zM86 51h3v1h-3zM96 51h4v1h-4zM122 51h1v1h-1zM14 52h11v1h-11zM54 52h3v1h-3zM86 52h3v1h-3zM97 52h2v1h-2zM121 52h2v1h-2zM14 53h10v1h-10zM54 53h3v1h-3zM86 53h3v1h-3zM103 53h1v1h-1zM122 53h1v1h-1zM14 54h9v1h-9zM54 54h4v1h-4zM86 54h3v1h-3zM102 54h3v1h-3zM122 54h1v1h-1zM15 55h8v1h-8zM56 55h2v1h-2zM85 55h4v1h-4zM102 55h3v1h-3zM15 56h7v1h-7zM56 56h2v1h-2zM84 56h4v1h-4zM101 56h5v1h-5zM16 57h5v1h-5zM56 57h2v1h-2zM84 57h3v1h-3zM102 57h5v1h-5zM17 58h4v1h-4zM57 58h2v1h-2zM84 58h2v1h-2zM103 58h2v1h-2zM57 59h2v1h-2zM84 59h2v1h-2zM103 59h3v1h-3zM57 60h3v1h-3zM85 60h1v1h-1zM101 60h6v1h-6zM119 60h2v1h-2zM58 61h2v1h-2zM102 61h5v1h-5zM110 61h1v1h-1zM119 61h3v1h-3zM58 62h3v1h-3zM103 62h5v1h-5zM110 62h1v1h-1zM119 62h3v1h-3zM58 63h3v1h-3zM81 63h2v1h-2zM103 63h6v1h-6zM119 63h3v1h-3zM59 64h2v1h-2zM81 64h2v1h-2zM104 64h5v1h-5zM119 64h4v1h-4zM59 65h3v1h-3zM83 65h1v1h-1zM104 65h6v1h-6zM119 65h4v1h-4zM60 66h2v1h-2zM83 66h1v1h-1zM106 66h4v1h-4zM119 66h4v1h-4zM60 67h3v1h-3zM106 67h5v1h-5zM119 67h4v1h-4zM61 68h2v1h-2zM107 68h4v1h-4zM119 68h4v1h-4zM61 69h3v1h-3zM107 69h4v1h-4zM120 69h4v1h-4zM23 70h1v1h-1zM61 70h3v1h-3zM107 70h4v1h-4zM120 70h4v1h-4zM23 71h2v1h-2zM62 71h4v1h-4zM107 71h5v1h-5zM121 71h3v1h-3zM24 72h2v1h-2zM64 72h1v1h-1zM83 72h1v1h-1zM108 72h4v1h-4zM122 72h2v1h-2zM22 73h5v1h-5zM82 73h2v1h-2zM108 73h4v1h-4zM120 73h3v1h-3zM21 74h6v1h-6zM81 74h3v1h-3zM85 74h1v1h-1zM109 74h4v1h-4zM121 74h2v1h-2zM19 75h8v1h-8zM81 75h3v1h-3zM86 75h1v1h-1zM109 75h4v1h-4zM122 75h1v1h-1zM19 76h9v1h-9zM68 76h1v1h-1zM81 76h4v1h-4zM86 76h1v1h-1zM110 76h3v1h-3zM19 77h10v1h-10zM68 77h2v1h-2zM82 77h4v1h-4zM87 77h1v1h-1zM110 77h4v1h-4zM19 78h11v1h-11zM68 78h2v1h-2zM82 78h4v1h-4zM87 78h1v1h-1zM111 78h3v1h-3zM20 79h9v1h-9zM68 79h2v1h-2zM83 79h5v1h-5zM111 79h3v1h-3zM20 80h7v1h-7zM69 80h2v1h-2zM85 80h3v1h-3zM111 80h3v1h-3zM20 81h6v1h-6zM70 81h2v1h-2zM86 81h3v1h-3zM111 81h2v1h-2zM20 82h5v1h-5zM71 82h1v1h-1zM86 82h4v1h-4zM112 82h2v1h-2zM20 83h5v1h-5zM72 83h2v1h-2zM87 83h4v1h-4zM112 83h2v1h-2zM20 84h4v1h-4zM89 84h4v1h-4zM112 84h3v1h-3zM20 85h3v1h-3zM90 85h4v1h-4zM112 85h4v1h-4zM21 86h1v1h-1zM91 86h5v1h-5zM112 86h2v1h-2zM93 87h5v1h-5zM94 88h5v1h-5zM97 89h3v1h-3zM21 90h3v1h-3zM98 90h2v1h-2zM21 91h4v1h-4zM74 91h1v1h-1zM100 91h1v1h-1zM102 91h5v1h-5zM24 92h1v1h-1zM38 92h1v1h-1zM41 92h2v1h-2zM72 92h3v1h-3zM101 92h3v1h-3zM39 93h2v1h-2zM42 93h2v1h-2zM72 93h3v1h-3z"/><path fill="#0033FF" d="M42 33h6v1h-6zM50 33h1v1h-1zM41 34h7v1h-7zM41 35h7v1h-7zM41 36h8v1h-8zM40 37h5v1h-5zM47 37h3v1h-3zM38 38h12v1h-12zM37 39h6v1h-6zM46 39h1v1h-1zM49 39h2v1h-2zM34 40h7v1h-7zM50 40h1v1h-1zM52 40h1v1h-1zM34 41h3v1h-3zM51 41h2v1h-2zM34 42h2v1h-2zM51 42h3v1h-3zM51 43h3v1h-3zM51 44h3v1h-3zM52 45h2v1h-2zM8 46h2v1h-2zM52 46h2v1h-2zM7 47h4v1h-4zM50 47h5v1h-5zM7 48h5v1h-5zM51 48h2v1h-2zM7 49h5v1h-5zM51 49h2v1h-2zM7 50h6v1h-6zM51 50h2v1h-2zM9 51h4v1h-4zM51 51h3v1h-3zM94 51h2v1h-2zM9 52h5v1h-5zM27 52h1v1h-1zM52 52h2v1h-2zM95 52h2v1h-2zM9 53h5v1h-5zM24 53h4v1h-4zM52 53h2v1h-2zM96 53h2v1h-2zM9 54h5v1h-5zM23 54h5v1h-5zM123 54h1v1h-1zM10 55h5v1h-5zM23 55h4v1h-4zM54 55h2v1h-2zM122 55h2v1h-2zM10 56h5v1h-5zM22 56h6v1h-6zM55 56h1v1h-1zM122 56h2v1h-2zM11 57h5v1h-5zM21 57h6v1h-6zM55 57h1v1h-1zM87 57h1v1h-1zM101 57h1v1h-1zM123 57h1v1h-1zM11 58h6v1h-6zM21 58h6v1h-6zM55 58h2v1h-2zM86 58h1v1h-1zM99 58h4v1h-4zM123 58h1v1h-1zM12 59h15v1h-15zM56 59h1v1h-1zM98 59h5v1h-5zM123 59h1v1h-1zM12 60h15v1h-15zM56 60h1v1h-1zM86 60h1v1h-1zM99 60h2v1h-2zM123 60h2v1h-2zM13 61h13v1h-13zM56 61h2v1h-2zM86 61h2v1h-2zM99 61h3v1h-3zM122 61h3v1h-3zM13 62h1v1h-1zM15 62h10v1h-10zM56 62h2v1h-2zM87 62h2v1h-2zM98 62h5v1h-5zM122 62h3v1h-3zM13 63h12v1h-12zM56 63h2v1h-2zM88 63h1v1h-1zM99 63h4v1h-4zM122 63h3v1h-3zM14 64h1v1h-1zM16 64h10v1h-10zM57 64h2v1h-2zM99 64h5v1h-5zM123 64h2v1h-2zM14 65h1v1h-1zM16 65h10v1h-10zM57 65h2v1h-2zM100 65h4v1h-4zM123 65h2v1h-2zM15 66h11v1h-11zM58 66h2v1h-2zM84 66h1v1h-1zM101 66h5v1h-5zM123 66h1v1h-1zM15 67h11v1h-11zM58 67h2v1h-2zM84 67h2v1h-2zM101 67h5v1h-5zM123 67h2v1h-2zM15 68h12v1h-12zM59 68h2v1h-2zM85 68h1v1h-1zM102 68h5v1h-5zM123 68h2v1h-2zM16 69h13v1h-13zM59 69h2v1h-2zM85 69h1v1h-1zM102 69h5v1h-5zM124 69h1v1h-1zM16 70h7v1h-7zM24 70h5v1h-5zM59 70h2v1h-2zM84 70h2v1h-2zM103 70h4v1h-4zM16 71h7v1h-7zM25 71h4v1h-4zM60 71h2v1h-2zM83 71h3v1h-3zM104 71h3v1h-3zM14 72h1v1h-1zM16 72h8v1h-8zM26 72h4v1h-4zM60 72h1v1h-1zM84 72h3v1h-3zM104 72h4v1h-4zM14 73h8v1h-8zM27 73h3v1h-3zM84 73h5v1h-5zM105 73h3v1h-3zM14 74h7v1h-7zM27 74h4v1h-4zM61 74h1v1h-1zM84 74h1v1h-1zM86 74h4v1h-4zM105 74h4v1h-4zM15 75h4v1h-4zM27 75h5v1h-5zM84 75h2v1h-2zM87 75h3v1h-3zM105 75h4v1h-4zM15 76h4v1h-4zM28 76h4v1h-4zM85 76h1v1h-1zM87 76h4v1h-4zM106 76h4v1h-4zM15 77h4v1h-4zM29 77h2v1h-2zM86 77h1v1h-1zM88 77h3v1h-3zM107 77h3v1h-3zM15 78h4v1h-4zM64 78h1v1h-1zM86 78h1v1h-1zM88 78h2v1h-2zM107 78h4v1h-4zM16 79h4v1h-4zM88 79h3v1h-3zM107 79h4v1h-4zM16 80h4v1h-4zM65 80h1v1h-1zM88 80h4v1h-4zM107 80h4v1h-4zM17 81h3v1h-3zM33 81h2v1h-2zM89 81h4v1h-4zM107 81h4v1h-4zM18 82h2v1h-2zM34 82h2v1h-2zM90 82h4v1h-4zM107 82h5v1h-5zM18 83h2v1h-2zM35 83h2v1h-2zM91 83h5v1h-5zM107 83h5v1h-5zM19 84h1v1h-1zM93 84h4v1h-4zM107 84h5v1h-5zM17 85h1v1h-1zM19 85h1v1h-1zM94 85h4v1h-4zM106 85h6v1h-6zM17 86h4v1h-4zM96 86h3v1h-3zM105 86h7v1h-7zM17 87h4v1h-4zM98 87h2v1h-2zM105 87h8v1h-8zM16 88h5v1h-5zM99 88h3v1h-3zM105 88h7v1h-7zM18 89h3v1h-3zM100 89h10v1h-10zM19 90h2v1h-2zM100 90h9v1h-9zM101 91h1v1h-1zM43 92h3v1h-3zM71 92h1v1h-1zM44 93h3v1h-3zM71 93h1v1h-1z"/><path fill="#00A8ED" d="M62 33h2v1h-2zM85 33h4v1h-4zM62 34h2v1h-2zM85 34h4v1h-4zM62 35h3v1h-3zM84 35h4v1h-4zM62 36h3v1h-3zM84 36h3v1h-3zM108 36h1v1h-1zM62 37h3v1h-3zM83 37h4v1h-4zM108 37h2v1h-2zM62 38h2v1h-2zM83 38h3v1h-3zM107 38h5v1h-5zM62 39h2v1h-2zM82 39h3v1h-3zM107 39h6v1h-6zM62 40h3v1h-3zM82 40h3v1h-3zM108 40h6v1h-6zM62 41h3v1h-3zM81 41h3v1h-3zM108 41h8v1h-8zM62 42h3v1h-3zM80 42h2v1h-2zM109 42h8v1h-8zM62 43h3v1h-3zM78 43h4v1h-4zM110 43h8v1h-8zM63 44h3v1h-3zM77 44h4v1h-4zM110 44h7v1h-7zM63 45h3v1h-3zM76 45h1v1h-1zM112 45h3v1h-3zM63 46h4v1h-4zM63 47h4v1h-4zM64 48h4v1h-4zM72 48h1v1h-1zM64 49h8v1h-8zM64 50h7v1h-7zM65 51h4v1h-4zM66 52h4v1h-4z"/><path fill="#0338FC" d="M64 33h3v1h-3zM83 33h2v1h-2zM64 34h3v1h-3zM82 34h3v1h-3zM65 35h3v1h-3zM81 35h3v1h-3zM65 36h3v1h-3zM81 36h3v1h-3zM65 37h3v1h-3zM80 37h3v1h-3zM64 38h4v1h-4zM79 38h4v1h-4zM64 39h4v1h-4zM79 39h3v1h-3zM65 40h4v1h-4zM78 40h4v1h-4zM65 41h5v1h-5zM75 41h1v1h-1zM77 41h4v1h-4zM65 42h5v1h-5zM74 42h6v1h-6zM65 43h13v1h-13zM66 44h11v1h-11zM66 45h10v1h-10zM67 46h8v1h-8zM67 47h7v1h-7zM68 48h4v1h-4zM69 51h2v1h-2z"/><path fill="#2103FA" d="M67 33h5v1h-5zM78 33h5v1h-5zM67 34h5v1h-5zM77 34h5v1h-5zM68 35h4v1h-4zM76 35h5v1h-5zM68 36h4v1h-4zM75 36h6v1h-6zM68 37h12v1h-12zM68 38h11v1h-11zM68 39h11v1h-11zM69 40h9v1h-9zM70 41h5v1h-5zM76 41h1v1h-1zM70 42h4v1h-4z"/><path fill="#9C00FF" d="M72 33h6v1h-6zM72 34h5v1h-5zM72 35h4v1h-4zM72 36h3v1h-3z"/><path fill="#0017F7" d="M45 37h2v1h-2zM43 39h3v1h-3zM47 39h2v1h-2zM41 40h9v1h-9zM37 41h14v1h-14zM36 42h10v1h-10zM47 42h4v1h-4zM37 43h2v1h-2zM40 43h2v1h-2zM43 43h3v1h-3zM48 43h3v1h-3zM39 44h1v1h-1zM45 44h1v1h-1zM48 44h3v1h-3zM45 45h3v1h-3zM49 45h3v1h-3zM46 46h6v1h-6zM47 47h3v1h-3zM47 48h4v1h-4zM6 49h1v1h-1zM48 49h3v1h-3zM6 50h1v1h-1zM48 50h3v1h-3zM5 51h4v1h-4zM49 51h2v1h-2zM5 52h4v1h-4zM49 52h3v1h-3zM5 53h4v1h-4zM28 53h4v1h-4zM51 53h1v1h-1zM4 54h5v1h-5zM28 54h3v1h-3zM52 54h2v1h-2zM5 55h5v1h-5zM27 55h4v1h-4zM52 55h2v1h-2zM5 56h5v1h-5zM28 56h2v1h-2zM52 56h3v1h-3zM6 57h5v1h-5zM27 57h4v1h-4zM53 57h2v1h-2zM124 57h1v1h-1zM6 58h5v1h-5zM27 58h3v1h-3zM53 58h2v1h-2zM124 58h1v1h-1zM7 59h5v1h-5zM27 59h3v1h-3zM53 59h3v1h-3zM97 59h1v1h-1zM124 59h1v1h-1zM8 60h4v1h-4zM27 60h3v1h-3zM54 60h2v1h-2zM93 60h6v1h-6zM8 61h5v1h-5zM26 61h4v1h-4zM53 61h3v1h-3zM92 61h7v1h-7zM9 62h4v1h-4zM14 62h1v1h-1zM25 62h5v1h-5zM54 62h2v1h-2zM91 62h7v1h-7zM9 63h4v1h-4zM25 63h3v1h-3zM54 63h2v1h-2zM89 63h10v1h-10zM9 64h5v1h-5zM15 64h1v1h-1zM26 64h3v1h-3zM55 64h2v1h-2zM89 64h3v1h-3zM93 64h6v1h-6zM10 65h4v1h-4zM15 65h1v1h-1zM26 65h3v1h-3zM55 65h2v1h-2zM93 65h7v1h-7zM10 66h5v1h-5zM26 66h3v1h-3zM56 66h2v1h-2zM93 66h8v1h-8zM124 66h1v1h-1zM11 67h4v1h-4zM26 67h3v1h-3zM56 67h2v1h-2zM97 67h4v1h-4zM11 68h4v1h-4zM27 68h3v1h-3zM57 68h2v1h-2zM86 68h1v1h-1zM99 68h3v1h-3zM11 69h5v1h-5zM29 69h1v1h-1zM57 69h2v1h-2zM86 69h1v1h-1zM100 69h2v1h-2zM11 70h5v1h-5zM29 70h2v1h-2zM58 70h1v1h-1zM86 70h2v1h-2zM100 70h3v1h-3zM12 71h4v1h-4zM29 71h3v1h-3zM58 71h2v1h-2zM86 71h3v1h-3zM101 71h3v1h-3zM10 72h4v1h-4zM15 72h1v1h-1zM30 72h3v1h-3zM59 72h1v1h-1zM87 72h2v1h-2zM101 72h3v1h-3zM11 73h3v1h-3zM30 73h3v1h-3zM59 73h2v1h-2zM89 73h1v1h-1zM101 73h4v1h-4zM11 74h3v1h-3zM31 74h3v1h-3zM60 74h1v1h-1zM90 74h1v1h-1zM98 74h7v1h-7zM11 75h4v1h-4zM32 75h3v1h-3zM60 75h2v1h-2zM90 75h2v1h-2zM99 75h6v1h-6zM11 76h4v1h-4zM32 76h1v1h-1zM62 76h1v1h-1zM91 76h1v1h-1zM99 76h7v1h-7zM11 77h4v1h-4zM62 77h2v1h-2zM91 77h2v1h-2zM100 77h7v1h-7zM11 78h4v1h-4zM36 78h1v1h-1zM63 78h1v1h-1zM90 78h4v1h-4zM101 78h6v1h-6zM14 79h2v1h-2zM35 79h1v1h-1zM37 79h1v1h-1zM64 79h1v1h-1zM91 79h4v1h-4zM101 79h6v1h-6zM14 80h2v1h-2zM34 80h2v1h-2zM64 80h1v1h-1zM92 80h3v1h-3zM101 80h6v1h-6zM15 81h2v1h-2zM93 81h3v1h-3zM101 81h6v1h-6zM15 82h3v1h-3zM36 82h2v1h-2zM94 82h13v1h-13zM15 83h3v1h-3zM37 83h3v1h-3zM96 83h11v1h-11zM14 84h5v1h-5zM38 84h1v1h-1zM97 84h10v1h-10zM14 85h3v1h-3zM18 85h1v1h-1zM98 85h8v1h-8zM14 86h3v1h-3zM99 86h6v1h-6zM15 87h2v1h-2zM100 87h5v1h-5zM102 88h3v1h-3zM46 92h2v1h-2zM69 92h2v1h-2zM47 93h2v1h-2zM69 93h2v1h-2z"/><path fill="#0306A8" d="M46 42h1v1h-1zM39 43h1v1h-1zM42 43h1v1h-1zM46 43h2v1h-2zM38 44h1v1h-1zM40 44h5v1h-5zM46 44h2v1h-2zM39 45h6v1h-6zM48 45h1v1h-1zM40 46h6v1h-6zM41 47h6v1h-6zM43 48h4v1h-4zM44 49h4v1h-4zM44 50h4v1h-4zM46 51h3v1h-3zM48 52h1v1h-1zM49 53h2v1h-2zM31 54h1v1h-1zM49 54h3v1h-3zM4 55h1v1h-1zM31 55h2v1h-2zM50 55h2v1h-2zM4 56h1v1h-1zM30 56h3v1h-3zM50 56h2v1h-2zM3 57h3v1h-3zM31 57h2v1h-2zM50 57h3v1h-3zM3 58h3v1h-3zM30 58h3v1h-3zM51 58h2v1h-2zM3 59h4v1h-4zM30 59h3v1h-3zM51 59h2v1h-2zM3 60h5v1h-5zM30 60h3v1h-3zM51 60h3v1h-3zM4 61h4v1h-4zM30 61h3v1h-3zM52 61h1v1h-1zM4 62h5v1h-5zM30 62h3v1h-3zM53 62h1v1h-1zM5 63h4v1h-4zM28 63h5v1h-5zM5 64h4v1h-4zM29 64h4v1h-4zM92 64h1v1h-1zM5 65h5v1h-5zM29 65h3v1h-3zM90 65h3v1h-3zM8 66h2v1h-2zM29 66h3v1h-3zM90 66h3v1h-3zM8 67h3v1h-3zM29 67h4v1h-4zM91 67h6v1h-6zM8 68h3v1h-3zM30 68h3v1h-3zM92 68h7v1h-7zM9 69h2v1h-2zM30 69h3v1h-3zM93 69h7v1h-7zM9 70h2v1h-2zM31 70h3v1h-3zM94 70h6v1h-6zM9 71h3v1h-3zM32 71h2v1h-2zM95 71h6v1h-6zM9 72h1v1h-1zM33 72h3v1h-3zM96 72h5v1h-5zM6 73h5v1h-5zM33 73h3v1h-3zM97 73h4v1h-4zM7 74h4v1h-4zM34 74h3v1h-3zM8 75h3v1h-3zM8 76h3v1h-3zM61 76h1v1h-1zM9 77h2v1h-2zM9 78h2v1h-2zM37 78h2v1h-2zM9 79h5v1h-5zM36 79h1v1h-1zM38 79h2v1h-2zM63 79h1v1h-1zM9 80h5v1h-5zM39 80h2v1h-2zM9 81h6v1h-6zM41 81h1v1h-1zM62 81h3v1h-3zM100 81h1v1h-1zM10 82h5v1h-5zM39 82h4v1h-4zM63 82h1v1h-1zM10 83h5v1h-5zM40 83h1v1h-1zM42 83h2v1h-2zM11 84h3v1h-3zM43 84h2v1h-2zM12 85h2v1h-2zM48 92h3v1h-3zM65 92h4v1h-4zM49 93h3v1h-3zM65 93h4v1h-4z"/><path fill="#FAFEFD" d="M117 46h1v1h-1zM117 47h1v1h-1zM120 51h1v1h-1zM120 52h1v1h-1zM120 53h1v1h-1zM117 54h3v1h-3zM117 55h3v1h-3zM117 56h3v1h-3zM120 57h3v1h-3zM120 58h3v1h-3zM120 59h3v1h-3zM61 72h2v1h-2zM61 73h2v1h-2zM66 73h1v1h-1zM37 74h2v1h-2zM62 74h1v1h-1zM66 74h4v1h-4zM36 75h3v1h-3zM62 75h4v1h-4zM36 76h3v1h-3zM63 76h3v1h-3zM31 77h2v1h-2zM36 77h4v1h-4zM64 77h2v1h-2zM30 78h3v1h-3zM39 78h1v1h-1zM66 78h2v1h-2zM29 79h4v1h-4zM52 79h2v1h-2zM66 79h2v1h-2zM27 80h6v1h-6zM66 80h3v1h-3zM27 81h6v1h-6zM55 81h2v1h-2zM66 81h4v1h-4zM27 82h6v1h-6zM56 82h1v1h-1zM66 82h5v1h-5zM27 83h6v1h-6zM41 83h1v1h-1zM55 83h2v1h-2zM66 83h6v1h-6zM75 83h1v1h-1zM27 84h3v1h-3zM33 84h3v1h-3zM42 84h1v1h-1zM54 84h3v1h-3zM63 84h3v1h-3zM69 84h6v1h-6zM27 85h3v1h-3zM33 85h3v1h-3zM42 85h4v1h-4zM54 85h3v1h-3zM63 85h3v1h-3zM69 85h6v1h-6zM27 86h3v1h-3zM33 86h3v1h-3zM42 86h6v1h-6zM54 86h3v1h-3zM63 86h3v1h-3zM69 86h6v1h-6zM21 87h6v1h-6zM30 87h6v1h-6zM42 87h6v1h-6zM54 87h6v1h-6zM66 87h3v1h-3zM72 87h3v1h-3zM21 88h6v1h-6zM30 88h6v1h-6zM42 88h6v1h-6zM54 88h6v1h-6zM66 88h3v1h-3zM72 88h3v1h-3zM21 89h6v1h-6zM30 89h6v1h-6zM42 89h6v1h-6zM54 89h6v1h-6zM66 89h3v1h-3zM72 89h2v1h-2zM24 90h3v1h-3zM30 90h6v1h-6zM39 90h3v1h-3zM48 90h6v1h-6zM57 90h3v1h-3zM66 90h6v1h-6zM30 91h6v1h-6zM39 91h3v1h-3zM48 91h6v1h-6zM57 91h3v1h-3zM66 91h6v1h-6z"/><path fill="#010540" d="M41 48h2v1h-2zM42 49h2v1h-2zM42 50h2v1h-2zM43 51h3v1h-3zM44 52h4v1h-4zM45 53h4v1h-4zM46 54h3v1h-3zM46 55h4v1h-4zM47 56h3v1h-3zM48 57h2v1h-2zM49 58h2v1h-2zM33 59h1v1h-1zM50 59h1v1h-1zM33 60h1v1h-1zM3 61h1v1h-1zM33 61h1v1h-1zM3 62h1v1h-1zM33 62h1v1h-1zM3 63h2v1h-2zM33 63h1v1h-1zM3 64h2v1h-2zM33 64h2v1h-2zM3 65h2v1h-2zM32 65h3v1h-3zM3 66h5v1h-5zM32 66h3v1h-3zM3 67h5v1h-5zM33 67h3v1h-3zM3 68h5v1h-5zM33 68h4v1h-4zM3 69h6v1h-6zM33 69h4v1h-4zM4 70h5v1h-5zM34 70h4v1h-4zM4 71h5v1h-5zM34 71h4v1h-4zM4 72h5v1h-5zM36 72h3v1h-3zM5 73h1v1h-1zM36 73h4v1h-4zM5 74h2v1h-2zM39 74h1v1h-1zM5 75h3v1h-3zM39 75h2v1h-2zM6 76h2v1h-2zM39 76h2v1h-2zM6 77h3v1h-3zM40 77h2v1h-2zM7 78h2v1h-2zM40 78h2v1h-2zM8 79h1v1h-1zM40 79h2v1h-2zM43 79h1v1h-1zM8 80h1v1h-1zM43 80h1v1h-1zM61 80h1v1h-1zM60 81h2v1h-2zM45 82h1v1h-1zM59 82h2v1h-2zM62 82h1v1h-1zM44 83h2v1h-2zM45 84h4v1h-4zM46 85h2v1h-2zM51 92h14v1h-14zM52 93h13v1h-13z"/><path fill="#010319" d="M117 48h2v1h-2zM117 49h3v1h-3zM116 50h4v1h-4zM116 51h4v1h-4zM116 52h4v1h-4zM116 53h4v1h-4zM120 54h2v1h-2zM120 55h2v1h-2zM120 56h2v1h-2zM118 57h2v1h-2zM119 58h1v1h-1zM121 60h2v1h-2zM63 72h1v1h-1zM63 73h3v1h-3zM63 74h3v1h-3zM35 75h1v1h-1zM66 75h3v1h-3zM33 76h3v1h-3zM66 76h2v1h-2zM33 77h3v1h-3zM66 77h2v1h-2zM33 78h3v1h-3zM65 78h1v1h-1zM33 79h2v1h-2zM54 79h1v1h-1zM65 79h1v1h-1zM33 80h1v1h-1zM54 80h3v1h-3zM26 81h1v1h-1zM57 81h1v1h-1zM65 81h1v1h-1zM25 82h2v1h-2zM33 82h1v1h-1zM57 82h2v1h-2zM61 82h1v1h-1zM64 82h2v1h-2zM25 83h2v1h-2zM33 83h2v1h-2zM57 83h9v1h-9zM24 84h3v1h-3zM30 84h3v1h-3zM36 84h2v1h-2zM39 84h3v1h-3zM50 84h2v1h-2zM57 84h6v1h-6zM66 84h3v1h-3zM75 84h1v1h-1zM23 85h4v1h-4zM30 85h3v1h-3zM36 85h6v1h-6zM48 85h6v1h-6zM57 85h6v1h-6zM66 85h3v1h-3zM75 85h1v1h-1zM22 86h5v1h-5zM30 86h3v1h-3zM36 86h6v1h-6zM48 86h6v1h-6zM57 86h6v1h-6zM66 86h3v1h-3zM27 87h3v1h-3zM36 87h6v1h-6zM48 87h6v1h-6zM60 87h6v1h-6zM69 87h3v1h-3zM27 88h3v1h-3zM36 88h6v1h-6zM48 88h6v1h-6zM60 88h6v1h-6zM69 88h3v1h-3zM27 89h3v1h-3zM36 89h6v1h-6zM48 89h6v1h-6zM60 89h6v1h-6zM69 89h3v1h-3zM27 90h3v1h-3zM36 90h3v1h-3zM42 90h6v1h-6zM54 90h3v1h-3zM60 90h6v1h-6zM72 90h2v1h-2zM28 91h2v1h-2zM36 91h3v1h-3zM42 91h6v1h-6zM54 91h3v1h-3zM60 91h6v1h-6zM72 91h2v1h-2z"/><path fill="#B3FF03" d="M44 53h1v1h-1zM45 54h1v1h-1zM38 71h1v1h-1zM39 72h1v1h-1zM40 73h1v1h-1zM40 74h1v1h-1zM52 76h1v1h-1zM45 77h2v1h-2zM53 77h2v1h-2zM45 78h2v1h-2zM53 78h4v1h-4zM44 79h4v1h-4zM50 79h2v1h-2zM55 79h3v1h-3zM44 80h4v1h-4zM50 80h4v1h-4zM57 80h2v1h-2zM46 81h1v1h-1zM52 81h3v1h-3zM58 81h2v1h-2zM46 82h1v1h-1zM50 82h2v1h-2zM54 82h2v1h-2zM48 83h7v1h-7zM49 84h1v1h-1zM52 84h2v1h-2z"/><path fill="#0D1CFA" d="M45 76h1v1h-1zM51 76h1v1h-1zM51 77h2v1h-2zM51 78h2v1h-2z"/></svg>