<svg xmlns="http://www.w3.org/2000/svg" width="240" height="240" viewBox="0 0 128 128" shape-rendering="crispEdges"><title>leptonai / PHASE SIGNAL pixel study</title><path fill="#4DFFF7" d="M38 21h2v1h-2zM37 22h3v1h-3zM36 23h3v1h-3zM36 24h3v1h-3zM94 24h2v1h-2zM35 25h3v1h-3zM92 25h6v1h-6zM34 26h4v1h-4zM91 26h9v1h-9zM33 27h3v1h-3zM91 27h10v1h-10zM32 28h4v1h-4zM59 28h2v1h-2zM91 28h10v1h-10zM31 29h4v1h-4zM59 29h3v1h-3zM91 29h10v1h-10zM31 30h3v1h-3zM59 30h4v1h-4zM91 30h11v1h-11zM29 31h4v1h-4zM59 31h3v1h-3zM90 31h13v1h-13zM28 32h4v1h-4zM59 32h3v1h-3zM90 32h13v1h-13zM105 32h1v1h-1zM16 33h3v1h-3zM25 33h6v1h-6zM59 33h3v1h-3zM89 33h17v1h-17zM14 34h8v1h-8zM24 34h6v1h-6zM59 34h3v1h-3zM89 34h5v1h-5zM96 34h4v1h-4zM102 34h5v1h-5zM15 35h14v1h-14zM59 35h3v1h-3zM89 35h3v1h-3zM102 35h5v1h-5zM15 36h3v1h-3zM19 36h9v1h-9zM60 36h2v1h-2zM103 36h5v1h-5zM16 37h1v1h-1zM20 37h8v1h-8zM59 37h3v1h-3zM104 37h4v1h-4zM23 38h3v1h-3zM59 38h3v1h-3zM104 38h3v1h-3zM23 39h1v1h-1zM59 39h3v1h-3zM104 39h3v1h-3zM59 40h3v1h-3zM104 40h4v1h-4zM120 40h2v1h-2zM59 41h3v1h-3zM105 41h3v1h-3zM118 41h1v1h-1zM120 41h2v1h-2zM60 42h2v1h-2zM105 42h4v1h-4zM118 42h1v1h-1zM61 43h1v1h-1zM106 43h4v1h-4zM118 43h1v1h-1zM61 44h2v1h-2zM105 44h5v1h-5zM117 44h1v1h-1zM61 45h2v1h-2zM80 45h2v1h-2zM107 45h5v1h-5zM115 45h3v1h-3zM61 46h1v1h-1zM79 46h3v1h-3zM108 46h9v1h-9zM79 47h3v1h-3zM110 47h7v1h-7zM78 48h4v1h-4zM111 48h6v1h-6zM77 49h5v1h-5zM112 49h3v1h-3zM77 50h4v1h-4zM76 51h5v1h-5zM76 52h3v1h-3zM75 53h4v1h-4zM74 54h4v1h-4zM74 55h3v1h-3zM73 56h4v1h-4zM72 57h3v1h-3zM69 58h5v1h-5zM69 59h5v1h-5zM69 60h5v1h-5zM69 61h5v1h-5zM69 62h5v1h-5zM69 63h5v1h-5zM79 92h2v1h-2zM89 92h1v1h-1zM79 93h4v1h-4zM88 93h4v1h-4zM80 94h13v1h-13zM80 95h4v1h-4zM90 95h4v1h-4zM80 96h3v1h-3zM91 96h5v1h-5zM97 96h1v1h-1zM80 97h3v1h-3zM92 97h5v1h-5zM98 97h2v1h-2zM79 98h3v1h-3zM94 98h6v1h-6zM79 99h3v1h-3zM95 99h4v1h-4zM79 100h2v1h-2zM98 100h3v1h-3zM79 101h2v1h-2zM99 101h1v1h-1zM32 102h1v1h-1zM78 102h3v1h-3zM32 103h3v1h-3zM78 103h2v1h-2zM33 104h4v1h-4zM78 104h2v1h-2zM35 105h10v1h-10zM78 105h2v1h-2zM40 106h6v1h-6z"/><path fill="#00FCFA" d="M40 21h3v1h-3zM44 21h2v1h-2zM40 22h3v1h-3zM44 22h1v1h-1zM39 23h4v1h-4zM44 23h1v1h-1zM39 24h3v1h-3zM38 25h4v1h-4zM54 25h1v1h-1zM38 26h3v1h-3zM54 26h3v1h-3zM36 27h4v1h-4zM54 27h1v1h-1zM56 27h3v1h-3zM36 28h3v1h-3zM56 28h3v1h-3zM35 29h3v1h-3zM57 29h2v1h-2zM34 30h3v1h-3zM57 30h2v1h-2zM33 31h3v1h-3zM57 31h2v1h-2zM32 32h4v1h-4zM57 32h2v1h-2zM31 33h4v1h-4zM57 33h2v1h-2zM30 34h4v1h-4zM57 34h2v1h-2zM94 34h2v1h-2zM100 34h2v1h-2zM13 35h2v1h-2zM29 35h4v1h-4zM57 35h2v1h-2zM92 35h10v1h-10zM12 36h3v1h-3zM18 36h1v1h-1zM28 36h4v1h-4zM58 36h2v1h-2zM91 36h12v1h-12zM12 37h4v1h-4zM17 37h3v1h-3zM28 37h3v1h-3zM58 37h1v1h-1zM93 37h1v1h-1zM95 37h9v1h-9zM12 38h11v1h-11zM26 38h6v1h-6zM58 38h1v1h-1zM98 38h6v1h-6zM13 39h10v1h-10zM24 39h6v1h-6zM58 39h1v1h-1zM100 39h4v1h-4zM14 40h15v1h-15zM58 40h1v1h-1zM100 40h4v1h-4zM15 41h13v1h-13zM58 41h1v1h-1zM100 41h5v1h-5zM15 42h7v1h-7zM58 42h2v1h-2zM101 42h4v1h-4zM121 42h2v1h-2zM16 43h6v1h-6zM58 43h3v1h-3zM103 43h3v1h-3zM122 43h1v1h-1zM17 44h4v1h-4zM58 44h3v1h-3zM123 44h1v1h-1zM18 45h3v1h-3zM59 45h2v1h-2zM59 46h2v1h-2zM59 47h2v1h-2zM115 49h2v1h-2zM81 50h1v1h-1zM112 50h4v1h-4zM81 51h1v1h-1zM112 51h4v1h-4zM79 52h3v1h-3zM112 52h4v1h-4zM79 53h3v1h-3zM112 53h4v1h-4zM78 54h4v1h-4zM112 54h5v1h-5zM77 55h4v1h-4zM112 55h1v1h-1zM116 55h1v1h-1zM77 56h2v1h-2zM80 56h1v1h-1zM116 56h1v1h-1zM75 57h4v1h-4zM80 57h1v1h-1zM74 58h4v1h-4zM74 59h4v1h-4zM74 60h4v1h-4zM74 61h3v1h-3zM74 62h3v1h-3zM74 63h5v1h-5zM69 64h9v1h-9zM69 65h9v1h-9zM69 66h9v1h-9zM69 67h9v1h-9zM69 68h9v1h-9zM69 69h9v1h-9zM69 70h2v1h-2zM70 71h1v1h-1zM70 72h2v1h-2zM71 73h1v1h-1zM72 74h1v1h-1zM73 75h1v1h-1zM75 76h2v1h-2zM75 77h3v1h-3zM75 78h4v1h-4zM76 79h3v1h-3zM76 80h4v1h-4zM117 80h1v1h-1zM122 80h1v1h-1zM76 81h6v1h-6zM117 81h2v1h-2zM120 81h5v1h-5zM78 82h4v1h-4zM117 82h7v1h-7zM78 83h3v1h-3zM117 83h7v1h-7zM79 84h2v1h-2zM117 84h7v1h-7zM117 85h6v1h-6zM118 86h4v1h-4zM118 87h4v1h-4zM77 88h1v1h-1zM118 88h3v1h-3zM76 89h1v1h-1zM118 89h2v1h-2zM76 90h2v1h-2zM118 90h1v1h-1zM77 91h3v1h-3zM91 91h2v1h-2zM77 92h2v1h-2zM90 92h5v1h-5zM96 92h1v1h-1zM77 93h2v1h-2zM92 93h6v1h-6zM77 94h3v1h-3zM93 94h7v1h-7zM77 95h3v1h-3zM94 95h7v1h-7zM77 96h3v1h-3zM96 96h1v1h-1zM98 96h4v1h-4zM77 97h3v1h-3zM97 97h1v1h-1zM100 97h2v1h-2zM77 98h2v1h-2zM100 98h2v1h-2zM77 99h2v1h-2zM99 99h4v1h-4zM28 100h2v1h-2zM77 100h2v1h-2zM101 100h1v1h-1zM28 101h4v1h-4zM76 101h3v1h-3zM30 102h2v1h-2zM76 102h2v1h-2zM76 103h2v1h-2zM76 104h2v1h-2zM45 105h3v1h-3zM46 106h2v1h-2z"/><path fill="#00C4FF" d="M43 21h1v1h-1zM46 21h2v1h-2zM43 22h1v1h-1zM45 22h5v1h-5zM43 23h1v1h-1zM45 23h7v1h-7zM42 24h12v1h-12zM42 25h4v1h-4zM47 25h7v1h-7zM41 26h4v1h-4zM49 26h5v1h-5zM40 27h4v1h-4zM52 27h2v1h-2zM55 27h1v1h-1zM39 28h4v1h-4zM54 28h2v1h-2zM38 29h5v1h-5zM54 29h3v1h-3zM37 30h4v1h-4zM54 30h3v1h-3zM36 31h4v1h-4zM54 31h3v1h-3zM36 32h3v1h-3zM54 32h3v1h-3zM35 33h3v1h-3zM54 33h3v1h-3zM34 34h4v1h-4zM54 34h3v1h-3zM33 35h5v1h-5zM53 35h1v1h-1zM55 35h2v1h-2zM11 36h1v1h-1zM32 36h3v1h-3zM36 36h1v1h-1zM53 36h1v1h-1zM55 36h3v1h-3zM11 37h1v1h-1zM31 37h3v1h-3zM55 37h3v1h-3zM94 37h1v1h-1zM11 38h1v1h-1zM32 38h1v1h-1zM55 38h3v1h-3zM94 38h4v1h-4zM11 39h2v1h-2zM30 39h2v1h-2zM56 39h2v1h-2zM96 39h4v1h-4zM10 40h4v1h-4zM29 40h1v1h-1zM56 40h2v1h-2zM98 40h2v1h-2zM10 41h5v1h-5zM56 41h2v1h-2zM11 42h4v1h-4zM22 42h5v1h-5zM56 42h2v1h-2zM11 43h5v1h-5zM22 43h3v1h-3zM56 43h2v1h-2zM123 43h1v1h-1zM12 44h5v1h-5zM21 44h2v1h-2zM56 44h2v1h-2zM122 44h1v1h-1zM13 45h5v1h-5zM56 45h3v1h-3zM122 45h2v1h-2zM15 46h5v1h-5zM57 46h2v1h-2zM123 46h2v1h-2zM15 47h3v1h-3zM57 47h2v1h-2zM123 47h1v1h-1zM15 48h2v1h-2zM57 48h2v1h-2zM123 48h1v1h-1zM55 49h1v1h-1zM57 49h2v1h-2zM57 50h2v1h-2zM57 51h2v1h-2zM57 52h2v1h-2zM57 53h2v1h-2zM58 54h1v1h-1zM58 55h1v1h-1zM81 55h1v1h-1zM113 55h3v1h-3zM58 56h1v1h-1zM79 56h1v1h-1zM81 56h1v1h-1zM112 56h4v1h-4zM58 57h1v1h-1zM79 57h1v1h-1zM81 57h1v1h-1zM112 57h6v1h-6zM78 58h4v1h-4zM112 58h7v1h-7zM78 59h4v1h-4zM112 59h8v1h-8zM78 60h4v1h-4zM112 60h7v1h-7zM77 61h5v1h-5zM112 61h7v1h-7zM77 62h5v1h-5zM112 62h7v1h-7zM79 63h2v1h-2zM112 63h7v1h-7zM78 64h3v1h-3zM112 64h7v1h-7zM78 65h3v1h-3zM112 65h7v1h-7zM78 66h3v1h-3zM112 66h7v1h-7zM78 67h3v1h-3zM112 67h7v1h-7zM78 68h4v1h-4zM112 68h7v1h-7zM78 69h2v1h-2zM112 69h8v1h-8zM71 70h9v1h-9zM112 70h8v1h-8zM69 71h1v1h-1zM71 71h9v1h-9zM112 71h9v1h-9zM69 72h1v1h-1zM72 72h8v1h-8zM112 72h10v1h-10zM69 73h2v1h-2zM72 73h9v1h-9zM112 73h8v1h-8zM69 74h3v1h-3zM73 74h8v1h-8zM113 74h8v1h-8zM69 75h4v1h-4zM74 75h7v1h-7zM113 75h9v1h-9zM69 76h2v1h-2zM73 76h2v1h-2zM77 76h4v1h-4zM113 76h11v1h-11zM70 77h1v1h-1zM74 77h1v1h-1zM78 77h4v1h-4zM114 77h11v1h-11zM70 78h1v1h-1zM74 78h1v1h-1zM79 78h3v1h-3zM114 78h11v1h-11zM75 79h1v1h-1zM79 79h3v1h-3zM114 79h11v1h-11zM75 80h1v1h-1zM80 80h2v1h-2zM114 80h3v1h-3zM118 80h4v1h-4zM123 80h2v1h-2zM113 81h4v1h-4zM119 81h1v1h-1zM76 82h2v1h-2zM114 82h3v1h-3zM76 83h2v1h-2zM114 83h3v1h-3zM76 84h3v1h-3zM115 84h2v1h-2zM25 85h1v1h-1zM76 85h4v1h-4zM116 85h1v1h-1zM25 86h3v1h-3zM75 86h5v1h-5zM116 86h2v1h-2zM26 87h4v1h-4zM75 87h4v1h-4zM116 87h2v1h-2zM29 88h3v1h-3zM75 88h2v1h-2zM116 88h2v1h-2zM30 89h3v1h-3zM74 89h2v1h-2zM95 89h2v1h-2zM116 89h2v1h-2zM32 90h3v1h-3zM74 90h2v1h-2zM93 90h5v1h-5zM116 90h2v1h-2zM33 91h4v1h-4zM75 91h2v1h-2zM93 91h7v1h-7zM116 91h1v1h-1zM35 92h3v1h-3zM75 92h2v1h-2zM95 92h1v1h-1zM97 92h4v1h-4zM37 93h2v1h-2zM75 93h2v1h-2zM98 93h4v1h-4zM39 94h2v1h-2zM75 94h2v1h-2zM100 94h3v1h-3zM40 95h2v1h-2zM75 95h2v1h-2zM101 95h5v1h-5zM75 96h2v1h-2zM102 96h5v1h-5zM24 97h1v1h-1zM75 97h2v1h-2zM102 97h5v1h-5zM23 98h3v1h-3zM75 98h2v1h-2zM102 98h3v1h-3zM26 99h2v1h-2zM74 99h3v1h-3zM26 100h2v1h-2zM74 100h3v1h-3zM74 101h2v1h-2zM74 102h2v1h-2zM74 103h2v1h-2zM48 104h2v1h-2zM48 105h2v1h-2z"/><path fill="#2103FA" d="M80 21h5v1h-5zM80 22h4v1h-4zM79 23h5v1h-5zM79 24h5v1h-5zM79 25h5v1h-5zM71 26h2v1h-2zM78 26h6v1h-6zM85 26h1v1h-1zM69 27h4v1h-4zM78 27h5v1h-5zM68 28h5v1h-5zM78 28h5v1h-5zM84 28h1v1h-1zM68 29h5v1h-5zM77 29h8v1h-8zM68 30h5v1h-5zM76 30h1v1h-1zM80 30h4v1h-4zM67 31h6v1h-6zM80 31h4v1h-4zM67 32h5v1h-5zM79 32h4v1h-4zM67 33h5v1h-5zM78 33h5v1h-5zM67 34h5v1h-5zM77 34h5v1h-5zM68 35h4v1h-4zM76 35h5v1h-5zM68 36h4v1h-4zM75 36h5v1h-5zM68 37h10v1h-10zM68 38h9v1h-9zM68 39h10v1h-10zM69 40h9v1h-9zM70 41h5v1h-5zM76 41h1v1h-1zM70 42h4v1h-4zM87 102h4v1h-4zM86 103h2v1h-2zM88 104h5v1h-5zM87 105h6v1h-6zM86 106h5v1h-5z"/><path fill="#0338FC" d="M85 21h5v1h-5zM84 22h7v1h-7zM84 23h7v1h-7zM84 24h6v1h-6zM30 25h2v1h-2zM84 25h6v1h-6zM28 26h3v1h-3zM84 26h1v1h-1zM86 26h3v1h-3zM26 27h5v1h-5zM83 27h5v1h-5zM25 28h4v1h-4zM67 28h1v1h-1zM83 28h1v1h-1zM85 28h3v1h-3zM23 29h2v1h-2zM27 29h1v1h-1zM66 29h2v1h-2zM85 29h2v1h-2zM65 30h3v1h-3zM84 30h3v1h-3zM106 30h1v1h-1zM64 31h3v1h-3zM84 31h2v1h-2zM64 32h3v1h-3zM83 32h3v1h-3zM109 32h1v1h-1zM64 33h3v1h-3zM83 33h2v1h-2zM110 33h2v1h-2zM64 34h3v1h-3zM82 34h1v1h-1zM110 34h4v1h-4zM65 35h3v1h-3zM111 35h4v1h-4zM65 36h3v1h-3zM111 36h6v1h-6zM65 37h3v1h-3zM111 37h7v1h-7zM64 38h4v1h-4zM112 38h7v1h-7zM64 39h4v1h-4zM113 39h5v1h-5zM65 40h4v1h-4zM78 40h1v1h-1zM114 40h2v1h-2zM65 41h5v1h-5zM75 41h1v1h-1zM77 41h3v1h-3zM65 42h5v1h-5zM74 42h6v1h-6zM65 43h13v1h-13zM66 44h11v1h-11zM66 45h10v1h-10zM67 46h8v1h-8zM67 47h7v1h-7zM69 48h3v1h-3zM69 51h2v1h-2zM86 98h6v1h-6zM85 99h8v1h-8zM84 100h9v1h-9zM83 101h12v1h-12zM83 102h4v1h-4zM91 102h5v1h-5zM82 103h4v1h-4zM88 103h8v1h-8zM82 104h6v1h-6zM93 104h2v1h-2zM83 105h4v1h-4zM82 106h4v1h-4z"/><path fill="#00A8ED" d="M35 22h2v1h-2zM91 22h2v1h-2zM33 23h3v1h-3zM91 23h4v1h-4zM32 24h4v1h-4zM90 24h4v1h-4zM32 25h3v1h-3zM90 25h2v1h-2zM31 26h3v1h-3zM89 26h2v1h-2zM31 27h2v1h-2zM88 27h3v1h-3zM101 27h1v1h-1zM29 28h3v1h-3zM88 28h3v1h-3zM101 28h2v1h-2zM25 29h2v1h-2zM28 29h3v1h-3zM87 29h4v1h-4zM101 29h4v1h-4zM21 30h10v1h-10zM63 30h2v1h-2zM87 30h4v1h-4zM102 30h4v1h-4zM20 31h9v1h-9zM62 31h2v1h-2zM86 31h4v1h-4zM103 31h5v1h-5zM18 32h10v1h-10zM62 32h2v1h-2zM86 32h4v1h-4zM103 32h2v1h-2zM106 32h3v1h-3zM19 33h6v1h-6zM62 33h2v1h-2zM85 33h4v1h-4zM106 33h4v1h-4zM22 34h2v1h-2zM62 34h2v1h-2zM87 34h2v1h-2zM107 34h3v1h-3zM62 35h3v1h-3zM107 35h4v1h-4zM62 36h3v1h-3zM108 36h3v1h-3zM62 37h3v1h-3zM108 37h3v1h-3zM62 38h2v1h-2zM107 38h5v1h-5zM119 38h1v1h-1zM62 39h2v1h-2zM107 39h6v1h-6zM118 39h3v1h-3zM62 40h3v1h-3zM108 40h6v1h-6zM116 40h4v1h-4zM62 41h3v1h-3zM108 41h10v1h-10zM62 42h3v1h-3zM109 42h9v1h-9zM62 43h3v1h-3zM78 43h3v1h-3zM110 43h8v1h-8zM63 44h3v1h-3zM77 44h4v1h-4zM110 44h7v1h-7zM63 45h3v1h-3zM76 45h4v1h-4zM112 45h3v1h-3zM66 46h1v1h-1zM75 46h4v1h-4zM74 47h5v1h-5zM72 48h6v1h-6zM69 49h8v1h-8zM69 50h8v1h-8zM71 51h5v1h-5zM69 52h7v1h-7zM69 53h6v1h-6zM69 54h5v1h-5zM69 55h5v1h-5zM69 56h4v1h-4zM69 57h3v1h-3zM84 95h6v1h-6zM83 96h8v1h-8zM83 97h9v1h-9zM82 98h4v1h-4zM92 98h2v1h-2zM82 99h3v1h-3zM93 99h2v1h-2zM81 100h3v1h-3zM93 100h5v1h-5zM81 101h2v1h-2zM95 101h4v1h-4zM81 102h2v1h-2zM96 102h2v1h-2zM80 103h2v1h-2zM80 104h2v1h-2zM80 105h3v1h-3zM37 106h3v1h-3zM80 106h2v1h-2z"/><path fill="#9C00FF" d="M78 22h2v1h-2zM76 23h3v1h-3zM74 24h5v1h-5zM73 25h6v1h-6zM73 26h5v1h-5zM73 27h5v1h-5zM73 28h5v1h-5zM73 29h4v1h-4zM73 30h3v1h-3zM77 30h3v1h-3zM73 31h7v1h-7zM72 32h7v1h-7zM72 33h6v1h-6zM72 34h5v1h-5zM72 35h4v1h-4zM72 36h3v1h-3z"/><path fill="#006EFF" d="M46 25h1v1h-1zM45 26h4v1h-4zM44 27h8v1h-8zM43 28h11v1h-11zM43 29h11v1h-11zM41 30h13v1h-13zM40 31h9v1h-9zM50 31h4v1h-4zM39 32h5v1h-5zM51 32h3v1h-3zM38 33h4v1h-4zM48 33h2v1h-2zM51 33h3v1h-3zM38 34h3v1h-3zM48 34h6v1h-6zM38 35h1v1h-1zM48 35h5v1h-5zM54 35h1v1h-1zM35 36h1v1h-1zM49 36h4v1h-4zM54 36h1v1h-1zM10 37h1v1h-1zM34 37h1v1h-1zM50 37h5v1h-5zM8 38h3v1h-3zM33 38h1v1h-1zM51 38h4v1h-4zM7 39h4v1h-4zM51 39h5v1h-5zM7 40h3v1h-3zM51 40h1v1h-1zM53 40h3v1h-3zM8 41h2v1h-2zM53 41h3v1h-3zM9 42h2v1h-2zM54 42h2v1h-2zM9 43h2v1h-2zM54 43h2v1h-2zM9 44h3v1h-3zM54 44h2v1h-2zM9 45h4v1h-4zM54 45h2v1h-2zM10 46h5v1h-5zM54 46h3v1h-3zM11 47h4v1h-4zM55 47h2v1h-2zM124 47h1v1h-1zM12 48h3v1h-3zM53 48h4v1h-4zM124 48h1v1h-1zM12 49h4v1h-4zM53 49h2v1h-2zM56 49h1v1h-1zM123 49h2v1h-2zM13 50h3v1h-3zM53 50h4v1h-4zM123 50h2v1h-2zM13 51h3v1h-3zM54 51h3v1h-3zM123 51h2v1h-2zM14 52h2v1h-2zM54 52h3v1h-3zM123 52h1v1h-1zM14 53h2v1h-2zM54 53h3v1h-3zM14 54h2v1h-2zM54 54h4v1h-4zM15 55h1v1h-1zM56 55h2v1h-2zM15 56h1v1h-1zM56 56h2v1h-2zM56 57h2v1h-2zM57 58h2v1h-2zM57 59h2v1h-2zM57 60h2v1h-2zM119 60h2v1h-2zM58 61h1v1h-1zM119 61h3v1h-3zM58 62h1v1h-1zM119 62h3v1h-3zM58 63h1v1h-1zM81 63h1v1h-1zM119 63h3v1h-3zM81 64h1v1h-1zM119 64h4v1h-4zM81 65h1v1h-1zM119 65h4v1h-4zM81 66h1v1h-1zM119 66h4v1h-4zM81 67h1v1h-1zM119 67h4v1h-4zM119 68h4v1h-4zM80 69h2v1h-2zM120 69h4v1h-4zM80 70h2v1h-2zM120 70h4v1h-4zM80 71h2v1h-2zM121 71h4v1h-4zM80 72h2v1h-2zM122 72h2v1h-2zM81 73h1v1h-1zM120 73h5v1h-5zM81 74h1v1h-1zM112 74h1v1h-1zM121 74h4v1h-4zM81 75h1v1h-1zM112 75h1v1h-1zM122 75h3v1h-3zM81 76h1v1h-1zM112 76h1v1h-1zM124 76h1v1h-1zM69 77h1v1h-1zM112 77h2v1h-2zM69 78h1v1h-1zM112 78h2v1h-2zM69 79h2v1h-2zM111 79h3v1h-3zM68 80h2v1h-2zM111 80h3v1h-3zM68 81h1v1h-1zM111 81h2v1h-2zM20 82h1v1h-1zM112 82h2v1h-2zM20 83h3v1h-3zM112 83h2v1h-2zM20 84h5v1h-5zM112 84h3v1h-3zM20 85h5v1h-5zM112 85h4v1h-4zM21 86h1v1h-1zM112 86h4v1h-4zM113 87h3v1h-3zM28 88h1v1h-1zM96 88h3v1h-3zM113 88h3v1h-3zM97 89h3v1h-3zM111 89h5v1h-5zM98 90h2v1h-2zM111 90h5v1h-5zM74 91h1v1h-1zM100 91h1v1h-1zM102 91h5v1h-5zM110 91h6v1h-6zM38 92h1v1h-1zM73 92h2v1h-2zM101 92h7v1h-7zM109 92h6v1h-6zM39 93h1v1h-1zM73 93h2v1h-2zM102 93h12v1h-12zM41 94h4v1h-4zM73 94h2v1h-2zM103 94h9v1h-9zM19 95h2v1h-2zM42 95h3v1h-3zM72 95h3v1h-3zM106 95h4v1h-4zM19 96h4v1h-4zM72 96h3v1h-3zM107 96h2v1h-2zM21 97h3v1h-3zM72 97h3v1h-3zM72 98h3v1h-3zM25 99h1v1h-1zM72 99h2v1h-2zM72 100h2v1h-2zM72 101h2v1h-2zM73 102h1v1h-1zM50 103h2v1h-2zM50 104h2v1h-2z"/><path fill="#0033FF" d="M49 31h1v1h-1zM44 32h7v1h-7zM42 33h6v1h-6zM50 33h1v1h-1zM45 34h3v1h-3zM47 35h1v1h-1zM48 36h1v1h-1zM50 39h1v1h-1zM6 40h1v1h-1zM50 40h1v1h-1zM52 40h1v1h-1zM6 41h2v1h-2zM51 41h2v1h-2zM5 42h4v1h-4zM51 42h3v1h-3zM4 43h5v1h-5zM51 43h3v1h-3zM5 44h4v1h-4zM51 44h3v1h-3zM6 45h3v1h-3zM52 45h2v1h-2zM6 46h4v1h-4zM52 46h2v1h-2zM6 47h5v1h-5zM50 47h5v1h-5zM6 48h6v1h-6zM51 48h2v1h-2zM7 49h5v1h-5zM51 49h2v1h-2zM7 50h6v1h-6zM51 50h2v1h-2zM9 51h4v1h-4zM51 51h3v1h-3zM9 52h5v1h-5zM52 52h2v1h-2zM124 52h1v1h-1zM9 53h5v1h-5zM52 53h2v1h-2zM123 53h2v1h-2zM9 54h5v1h-5zM123 54h2v1h-2zM10 55h5v1h-5zM54 55h2v1h-2zM123 55h2v1h-2zM10 56h5v1h-5zM55 56h1v1h-1zM123 56h1v1h-1zM11 57h5v1h-5zM55 57h1v1h-1zM123 57h1v1h-1zM11 58h5v1h-5zM55 58h2v1h-2zM123 58h1v1h-1zM12 59h4v1h-4zM56 59h1v1h-1zM123 59h1v1h-1zM12 60h4v1h-4zM56 60h1v1h-1zM123 60h2v1h-2zM13 61h3v1h-3zM56 61h2v1h-2zM122 61h3v1h-3zM13 62h1v1h-1zM15 62h1v1h-1zM56 62h2v1h-2zM122 62h3v1h-3zM13 63h3v1h-3zM56 63h2v1h-2zM122 63h3v1h-3zM14 64h1v1h-1zM57 64h2v1h-2zM123 64h2v1h-2zM14 65h1v1h-1zM57 65h2v1h-2zM123 65h2v1h-2zM15 66h1v1h-1zM58 66h1v1h-1zM123 66h1v1h-1zM15 67h1v1h-1zM58 67h1v1h-1zM123 67h2v1h-2zM15 68h1v1h-1zM123 68h2v1h-2zM124 69h1v1h-1zM124 70h1v1h-1zM14 72h1v1h-1zM124 72h1v1h-1zM14 73h2v1h-2zM14 74h2v1h-2zM15 75h1v1h-1zM15 76h1v1h-1zM15 77h1v1h-1zM15 78h1v1h-1zM16 79h1v1h-1zM16 80h2v1h-2zM67 80h1v1h-1zM110 80h1v1h-1zM17 81h2v1h-2zM66 81h2v1h-2zM109 81h2v1h-2zM18 82h2v1h-2zM66 82h1v1h-1zM107 82h5v1h-5zM18 83h2v1h-2zM107 83h5v1h-5zM19 84h1v1h-1zM107 84h5v1h-5zM17 85h1v1h-1zM19 85h1v1h-1zM106 85h6v1h-6zM17 86h4v1h-4zM105 86h7v1h-7zM17 87h4v1h-4zM98 87h2v1h-2zM105 87h8v1h-8zM7 88h1v1h-1zM16 88h5v1h-5zM99 88h3v1h-3zM105 88h8v1h-8zM8 89h1v1h-1zM16 89h4v1h-4zM100 89h11v1h-11zM9 90h1v1h-1zM16 90h4v1h-4zM100 90h11v1h-11zM16 91h3v1h-3zM101 91h1v1h-1zM107 91h3v1h-3zM13 92h6v1h-6zM108 92h1v1h-1zM14 93h4v1h-4zM45 93h2v1h-2zM16 94h3v1h-3zM45 94h2v1h-2zM72 94h1v1h-1zM18 95h1v1h-1zM71 96h1v1h-1zM70 97h2v1h-2zM70 98h2v1h-2zM70 99h2v1h-2zM69 100h3v1h-3zM71 101h1v1h-1zM52 102h2v1h-2zM52 103h2v1h-2z"/><path fill="#0017F7" d="M49 40h1v1h-1zM48 41h3v1h-3zM48 42h3v1h-3zM48 43h3v1h-3zM4 44h1v1h-1zM48 44h3v1h-3zM4 45h2v1h-2zM46 45h2v1h-2zM49 45h3v1h-3zM3 46h3v1h-3zM46 46h6v1h-6zM3 47h3v1h-3zM47 47h3v1h-3zM3 48h3v1h-3zM47 48h4v1h-4zM3 49h4v1h-4zM48 49h3v1h-3zM3 50h4v1h-4zM48 50h3v1h-3zM3 51h6v1h-6zM49 51h2v1h-2zM3 52h6v1h-6zM49 52h3v1h-3zM4 53h5v1h-5zM51 53h1v1h-1zM4 54h5v1h-5zM52 54h2v1h-2zM5 55h5v1h-5zM52 55h2v1h-2zM5 56h5v1h-5zM52 56h3v1h-3zM124 56h1v1h-1zM6 57h5v1h-5zM53 57h2v1h-2zM124 57h1v1h-1zM6 58h5v1h-5zM53 58h2v1h-2zM124 58h1v1h-1zM7 59h5v1h-5zM53 59h3v1h-3zM124 59h1v1h-1zM8 60h4v1h-4zM54 60h2v1h-2zM8 61h5v1h-5zM53 61h3v1h-3zM9 62h4v1h-4zM14 62h1v1h-1zM54 62h2v1h-2zM9 63h4v1h-4zM54 63h2v1h-2zM9 64h5v1h-5zM15 64h1v1h-1zM55 64h2v1h-2zM10 65h4v1h-4zM15 65h1v1h-1zM55 65h2v1h-2zM10 66h5v1h-5zM56 66h2v1h-2zM124 66h1v1h-1zM11 67h4v1h-4zM56 67h2v1h-2zM11 68h4v1h-4zM56 68h3v1h-3zM11 69h5v1h-5zM57 69h2v1h-2zM11 70h5v1h-5zM57 70h2v1h-2zM12 71h4v1h-4zM58 71h1v1h-1zM10 72h4v1h-4zM15 72h1v1h-1zM58 72h1v1h-1zM11 73h3v1h-3zM11 74h3v1h-3zM11 75h4v1h-4zM11 76h4v1h-4zM11 77h4v1h-4zM11 78h4v1h-4zM14 79h2v1h-2zM14 80h2v1h-2zM15 81h2v1h-2zM15 82h3v1h-3zM65 82h1v1h-1zM15 83h3v1h-3zM65 83h1v1h-1zM105 83h2v1h-2zM14 84h5v1h-5zM103 84h4v1h-4zM5 85h3v1h-3zM14 85h3v1h-3zM18 85h1v1h-1zM102 85h4v1h-4zM6 86h2v1h-2zM14 86h3v1h-3zM100 86h5v1h-5zM6 87h3v1h-3zM14 87h3v1h-3zM100 87h5v1h-5zM8 88h2v1h-2zM13 88h3v1h-3zM102 88h3v1h-3zM9 89h7v1h-7zM10 90h6v1h-6zM11 91h5v1h-5zM47 92h1v1h-1zM47 93h1v1h-1zM68 98h1v1h-1zM68 99h2v1h-2zM55 100h1v1h-1zM57 100h1v1h-1zM54 101h3v1h-3zM54 102h1v1h-1z"/><path fill="#FAFEFD" d="M119 41h1v1h-1zM120 42h1v1h-1zM120 43h2v1h-2zM120 44h2v1h-2zM118 45h2v1h-2zM117 46h3v1h-3zM117 47h3v1h-3zM120 51h3v1h-3zM120 52h3v1h-3zM120 53h3v1h-3zM117 54h3v1h-3zM117 55h3v1h-3zM117 56h3v1h-3zM120 57h3v1h-3zM120 58h3v1h-3zM120 59h3v1h-3zM54 71h3v1h-3zM51 72h3v1h-3zM51 73h3v1h-3zM51 74h3v1h-3zM48 75h6v1h-6zM48 76h6v1h-6zM71 76h2v1h-2zM48 77h6v1h-6zM71 77h3v1h-3zM48 78h6v1h-6zM72 78h2v1h-2zM48 79h6v1h-6zM72 79h3v1h-3zM48 80h6v1h-6zM57 80h1v1h-1zM72 80h3v1h-3zM54 81h3v1h-3zM69 81h3v1h-3zM75 81h1v1h-1zM54 82h3v1h-3zM67 82h5v1h-5zM75 82h1v1h-1zM54 83h3v1h-3zM66 83h6v1h-6zM75 83h1v1h-1zM54 84h3v1h-3zM63 84h3v1h-3zM69 84h6v1h-6zM54 85h3v1h-3zM63 85h3v1h-3zM69 85h6v1h-6zM54 86h3v1h-3zM63 86h3v1h-3zM69 86h6v1h-6zM21 87h5v1h-5zM54 87h6v1h-6zM66 87h3v1h-3zM72 87h3v1h-3zM21 88h6v1h-6zM54 88h6v1h-6zM66 88h3v1h-3zM72 88h3v1h-3zM21 89h6v1h-6zM54 89h6v1h-6zM66 89h3v1h-3zM72 89h2v1h-2zM21 90h6v1h-6zM30 90h2v1h-2zM52 90h2v1h-2zM57 90h3v1h-3zM66 90h6v1h-6zM21 91h6v1h-6zM30 91h3v1h-3zM51 91h3v1h-3zM57 91h3v1h-3zM66 91h6v1h-6zM21 92h6v1h-6zM30 92h5v1h-5zM50 92h4v1h-4zM57 92h3v1h-3zM66 92h6v1h-6zM18 93h3v1h-3zM27 93h3v1h-3zM36 93h1v1h-1zM48 93h6v1h-6zM57 93h9v1h-9zM69 93h3v1h-3zM19 94h2v1h-2zM27 94h3v1h-3zM36 94h3v1h-3zM48 94h6v1h-6zM57 94h9v1h-9zM69 94h3v1h-3zM27 95h3v1h-3zM36 95h4v1h-4zM48 95h6v1h-6zM57 95h9v1h-9zM69 95h3v1h-3zM27 96h3v1h-3zM36 96h3v1h-3zM42 96h6v1h-6zM51 96h6v1h-6zM27 97h3v1h-3zM36 97h3v1h-3zM42 97h6v1h-6zM51 97h6v1h-6zM27 98h3v1h-3zM36 98h3v1h-3zM42 98h6v1h-6zM51 98h6v1h-6zM30 99h6v1h-6zM42 99h6v1h-6zM51 99h3v1h-3zM30 100h6v1h-6zM42 100h6v1h-6zM51 100h3v1h-3zM32 101h4v1h-4zM42 101h6v1h-6zM51 101h3v1h-3zM36 102h6v1h-6zM45 102h6v1h-6zM36 103h6v1h-6zM45 103h5v1h-5zM37 104h5v1h-5zM45 104h3v1h-3z"/><path fill="#010319" d="M119 42h1v1h-1zM119 43h1v1h-1zM118 44h2v1h-2zM120 45h2v1h-2zM120 46h3v1h-3zM120 47h3v1h-3zM117 48h6v1h-6zM117 49h6v1h-6zM116 50h7v1h-7zM116 51h4v1h-4zM116 52h4v1h-4zM116 53h4v1h-4zM120 54h3v1h-3zM120 55h3v1h-3zM120 56h3v1h-3zM118 57h2v1h-2zM119 58h1v1h-1zM121 60h2v1h-2zM49 71h5v1h-5zM48 72h3v1h-3zM54 72h3v1h-3zM48 73h3v1h-3zM54 73h3v1h-3zM48 74h3v1h-3zM54 74h3v1h-3zM54 75h3v1h-3zM54 76h3v1h-3zM54 77h3v1h-3zM54 78h3v1h-3zM71 78h1v1h-1zM54 79h3v1h-3zM71 79h1v1h-1zM54 80h3v1h-3zM70 80h2v1h-2zM48 81h6v1h-6zM57 81h2v1h-2zM72 81h3v1h-3zM48 82h6v1h-6zM57 82h4v1h-4zM72 82h3v1h-3zM49 83h5v1h-5zM57 83h5v1h-5zM72 83h3v1h-3zM49 84h5v1h-5zM57 84h6v1h-6zM66 84h3v1h-3zM75 84h1v1h-1zM50 85h4v1h-4zM57 85h6v1h-6zM66 85h3v1h-3zM75 85h1v1h-1zM22 86h3v1h-3zM50 86h4v1h-4zM57 86h6v1h-6zM66 86h3v1h-3zM51 87h3v1h-3zM60 87h6v1h-6zM69 87h3v1h-3zM27 88h1v1h-1zM52 88h2v1h-2zM60 88h6v1h-6zM69 88h3v1h-3zM20 89h1v1h-1zM27 89h3v1h-3zM53 89h1v1h-1zM60 89h6v1h-6zM69 89h3v1h-3zM20 90h1v1h-1zM27 90h3v1h-3zM54 90h3v1h-3zM60 90h6v1h-6zM72 90h2v1h-2zM19 91h2v1h-2zM27 91h3v1h-3zM54 91h3v1h-3zM60 91h6v1h-6zM72 91h2v1h-2zM19 92h2v1h-2zM27 92h3v1h-3zM54 92h3v1h-3zM60 92h6v1h-6zM72 92h1v1h-1zM21 93h6v1h-6zM30 93h6v1h-6zM54 93h3v1h-3zM66 93h3v1h-3zM72 93h1v1h-1zM21 94h6v1h-6zM30 94h6v1h-6zM47 94h1v1h-1zM54 94h3v1h-3zM66 94h3v1h-3zM21 95h6v1h-6zM30 95h6v1h-6zM45 95h3v1h-3zM54 95h3v1h-3zM66 95h3v1h-3zM23 96h4v1h-4zM30 96h6v1h-6zM39 96h3v1h-3zM48 96h3v1h-3zM57 96h5v1h-5zM66 96h5v1h-5zM25 97h2v1h-2zM30 97h6v1h-6zM39 97h3v1h-3zM48 97h3v1h-3zM57 97h4v1h-4zM67 97h3v1h-3zM26 98h1v1h-1zM30 98h6v1h-6zM39 98h3v1h-3zM48 98h3v1h-3zM57 98h2v1h-2zM69 98h1v1h-1zM28 99h2v1h-2zM36 99h6v1h-6zM48 99h3v1h-3zM54 99h3v1h-3zM36 100h6v1h-6zM48 100h3v1h-3zM54 100h1v1h-1zM36 101h6v1h-6zM48 101h3v1h-3zM33 102h3v1h-3zM42 102h3v1h-3zM51 102h1v1h-1zM35 103h1v1h-1zM42 103h3v1h-3zM42 104h3v1h-3z"/><path fill="#0306A8" d="M47 43h1v1h-1zM47 44h1v1h-1zM48 45h1v1h-1zM46 47h1v1h-1zM46 48h1v1h-1zM46 49h2v1h-2zM46 50h2v1h-2zM46 51h3v1h-3zM48 52h1v1h-1zM3 53h1v1h-1zM49 53h2v1h-2zM3 54h1v1h-1zM49 54h3v1h-3zM3 55h2v1h-2zM50 55h2v1h-2zM3 56h2v1h-2zM50 56h2v1h-2zM3 57h3v1h-3zM50 57h3v1h-3zM3 58h3v1h-3zM51 58h2v1h-2zM3 59h4v1h-4zM51 59h2v1h-2zM3 60h5v1h-5zM50 60h4v1h-4zM4 61h4v1h-4zM51 61h2v1h-2zM4 62h5v1h-5zM51 62h3v1h-3zM5 63h4v1h-4zM52 63h2v1h-2zM5 64h4v1h-4zM52 64h3v1h-3zM5 65h5v1h-5zM53 65h2v1h-2zM8 66h2v1h-2zM53 66h3v1h-3zM8 67h3v1h-3zM53 67h3v1h-3zM8 68h3v1h-3zM54 68h2v1h-2zM9 69h2v1h-2zM54 69h3v1h-3zM9 70h2v1h-2zM55 70h2v1h-2zM9 71h3v1h-3zM57 71h1v1h-1zM9 72h1v1h-1zM57 72h1v1h-1zM6 73h5v1h-5zM57 73h2v1h-2zM7 74h4v1h-4zM57 74h2v1h-2zM8 75h3v1h-3zM8 76h3v1h-3zM9 77h2v1h-2zM9 78h2v1h-2zM9 79h5v1h-5zM3 80h1v1h-1zM9 80h5v1h-5zM3 81h3v1h-3zM7 81h8v1h-8zM4 82h11v1h-11zM63 82h2v1h-2zM4 83h11v1h-11zM63 83h2v1h-2zM4 84h10v1h-10zM8 85h6v1h-6zM8 86h6v1h-6zM9 87h5v1h-5zM10 88h3v1h-3zM50 90h1v1h-1zM48 91h2v1h-2zM48 92h2v1h-2zM65 97h2v1h-2zM66 98h2v1h-2zM57 99h4v1h-4zM67 99h1v1h-1zM56 100h1v1h-1zM58 100h1v1h-1z"/><path fill="#010540" d="M46 52h2v1h-2zM46 53h3v1h-3zM46 54h3v1h-3zM46 55h4v1h-4zM47 56h3v1h-3zM47 57h3v1h-3zM48 58h3v1h-3zM47 59h4v1h-4zM48 60h2v1h-2zM3 61h1v1h-1zM48 61h3v1h-3zM3 62h1v1h-1zM49 62h2v1h-2zM3 63h2v1h-2zM49 63h3v1h-3zM3 64h2v1h-2zM50 64h2v1h-2zM3 65h2v1h-2zM50 65h3v1h-3zM3 66h5v1h-5zM49 66h4v1h-4zM3 67h5v1h-5zM50 67h3v1h-3zM3 68h5v1h-5zM50 68h4v1h-4zM3 69h6v1h-6zM51 69h3v1h-3zM3 70h6v1h-6zM51 70h4v1h-4zM3 71h6v1h-6zM3 72h6v1h-6zM3 73h3v1h-3zM3 74h4v1h-4zM3 75h5v1h-5zM57 75h2v1h-2zM3 76h5v1h-5zM57 76h2v1h-2zM3 77h6v1h-6zM57 77h2v1h-2zM3 78h6v1h-6zM58 78h1v1h-1zM3 79h6v1h-6zM4 80h5v1h-5zM59 80h2v1h-2zM6 81h1v1h-1zM60 81h2v1h-2zM61 82h2v1h-2zM62 83h1v1h-1zM47 84h2v1h-2zM48 85h2v1h-2zM48 86h2v1h-2zM49 87h2v1h-2zM50 88h2v1h-2zM51 89h2v1h-2zM51 90h1v1h-1zM50 91h1v1h-1zM62 96h4v1h-4zM61 97h4v1h-4zM59 98h3v1h-3z"/><path fill="#B3FF03" d="M46 56h1v1h-1zM46 57h1v1h-1zM46 58h2v1h-2zM46 59h1v1h-1zM46 60h2v1h-2zM46 61h2v1h-2zM46 62h3v1h-3zM46 63h3v1h-3zM46 64h4v1h-4zM46 65h4v1h-4zM46 66h3v1h-3zM46 67h4v1h-4zM46 68h4v1h-4zM47 69h4v1h-4zM47 70h4v1h-4zM48 71h1v1h-1zM46 77h1v1h-1zM46 78h2v1h-2zM57 78h1v1h-1zM46 79h2v1h-2zM57 79h2v1h-2zM46 80h2v1h-2zM58 80h1v1h-1zM46 81h2v1h-2zM59 81h1v1h-1zM46 82h2v1h-2zM47 83h2v1h-2z"/><path fill="#0D1CFA" d="M46 69h1v1h-1zM46 70h1v1h-1zM46 71h2v1h-2zM46 72h2v1h-2zM46 73h2v1h-2zM46 74h2v1h-2zM46 75h2v1h-2zM46 76h2v1h-2zM47 77h1v1h-1z"/></svg>