<svg xmlns="http://www.w3.org/2000/svg" width="240" height="240" viewBox="0 0 128 128" shape-rendering="crispEdges"><title>智谱 Zhipu / PHASE SIGNAL pixel study</title><path fill="#00FCFA" d="M63 3h1v1h-1zM12 33h1v1h-1zM12 34h2v1h-2zM57 35h1v1h-1zM28 37h1v1h-1zM99 37h3v1h-3zM26 38h5v1h-5zM98 38h6v1h-6zM24 39h6v1h-6zM100 39h4v1h-4zM23 40h6v1h-6zM100 40h4v1h-4zM22 41h6v1h-6zM99 41h6v1h-6zM98 42h7v1h-7zM99 43h1v1h-1zM101 43h5v1h-5zM84 44h1v1h-1zM102 44h3v1h-3zM102 45h3v1h-3zM59 51h3v1h-3zM59 52h3v1h-3zM60 53h3v1h-3zM60 54h3v1h-3zM60 55h4v1h-4zM61 56h3v1h-3zM61 57h2v1h-2zM61 58h3v1h-3zM74 58h1v1h-1zM62 59h3v1h-3zM74 59h1v1h-1zM62 60h3v1h-3zM74 60h2v1h-2zM62 61h4v1h-4zM74 61h2v1h-2zM63 62h4v1h-4zM74 62h2v1h-2zM63 63h5v1h-5zM74 63h2v1h-2zM64 64h4v1h-4zM69 64h7v1h-7zM64 65h12v1h-12zM65 66h11v1h-11zM66 67h10v1h-10zM66 68h9v1h-9zM67 69h8v1h-8zM69 70h2v1h-2zM70 71h1v1h-1zM70 72h2v1h-2zM71 73h1v1h-1zM76 81h6v1h-6zM78 82h6v1h-6zM78 83h6v1h-6zM79 84h6v1h-6zM80 85h6v1h-6zM80 86h7v1h-7zM79 87h3v1h-3zM85 87h2v1h-2zM77 88h3v1h-3zM76 89h4v1h-4zM76 90h4v1h-4zM77 91h3v1h-3zM77 92h2v1h-2zM77 93h2v1h-2zM77 94h3v1h-3zM77 95h3v1h-3zM77 96h3v1h-3zM77 97h3v1h-3zM63 122h1v1h-1zM63 123h1v1h-1zM63 124h2v1h-2z"/><path fill="#4DFFF7" d="M64 3h1v1h-1zM63 4h2v1h-2zM63 5h1v1h-1zM38 15h2v1h-2zM38 16h3v1h-3zM61 16h2v1h-2zM37 17h4v1h-4zM60 17h3v1h-3zM37 18h4v1h-4zM59 18h4v1h-4zM37 19h3v1h-3zM59 19h4v1h-4zM37 20h2v1h-2zM59 20h4v1h-4zM59 21h4v1h-4zM59 22h3v1h-3zM59 23h3v1h-3zM60 24h1v1h-1zM62 24h1v1h-1zM62 25h1v1h-1zM13 33h1v1h-1zM26 37h2v1h-2zM24 38h2v1h-2zM86 38h1v1h-1zM23 39h1v1h-1zM85 39h2v1h-2zM104 39h1v1h-1zM85 40h2v1h-2zM104 40h1v1h-1zM84 41h3v1h-3zM105 41h1v1h-1zM82 42h4v1h-4zM105 42h1v1h-1zM82 43h3v1h-3zM81 44h3v1h-3zM80 45h4v1h-4zM79 46h3v1h-3zM62 52h4v1h-4zM63 53h4v1h-4zM63 54h5v1h-5zM64 55h4v1h-4zM64 56h4v1h-4zM73 56h1v1h-1zM63 57h5v1h-5zM72 57h3v1h-3zM64 58h10v1h-10zM65 59h9v1h-9zM65 60h9v1h-9zM66 61h8v1h-8zM67 62h7v1h-7zM68 63h6v1h-6zM68 64h1v1h-1zM82 87h3v1h-3zM80 88h7v1h-7zM80 89h7v1h-7zM80 90h7v1h-7zM80 91h7v1h-7zM79 92h8v1h-8zM79 93h7v1h-7zM80 94h6v1h-6zM80 95h4v1h-4zM80 96h3v1h-3zM80 97h2v1h-2zM64 123h1v1h-1z"/><path fill="#00A8ED" d="M36 14h3v1h-3zM89 14h3v1h-3zM35 15h3v1h-3zM88 15h5v1h-5zM35 16h3v1h-3zM63 16h3v1h-3zM88 16h5v1h-5zM35 17h2v1h-2zM63 17h2v1h-2zM88 17h6v1h-6zM34 18h3v1h-3zM63 18h3v1h-3zM88 18h6v1h-6zM35 19h2v1h-2zM63 19h3v1h-3zM88 19h5v1h-5zM36 20h1v1h-1zM63 20h2v1h-2zM91 20h1v1h-1zM63 21h2v1h-2zM62 22h3v1h-3zM62 23h3v1h-3zM61 24h1v1h-1zM63 24h2v1h-2zM61 25h1v1h-1zM63 25h2v1h-2zM85 33h1v1h-1zM85 34h1v1h-1zM84 35h3v1h-3zM84 36h3v1h-3zM83 37h4v1h-4zM83 38h3v1h-3zM82 39h3v1h-3zM82 40h3v1h-3zM81 41h3v1h-3zM80 42h2v1h-2zM78 43h4v1h-4zM77 44h4v1h-4zM76 45h4v1h-4zM75 46h4v1h-4zM66 52h3v1h-3zM67 53h4v1h-4zM68 54h4v1h-4zM68 55h5v1h-5zM68 56h5v1h-5zM68 57h4v1h-4zM84 95h1v1h-1zM83 96h1v1h-1zM36 107h3v1h-3zM35 108h5v1h-5zM34 109h2v1h-2zM39 109h2v1h-2zM34 110h2v1h-2zM39 110h2v1h-2zM35 111h2v1h-2zM39 111h2v1h-2zM35 112h1v1h-1z"/><path fill="#0338FC" d="M66 16h1v1h-1zM87 16h1v1h-1zM34 17h1v1h-1zM65 17h3v1h-3zM87 17h1v1h-1zM66 18h2v1h-2zM87 18h1v1h-1zM66 19h2v1h-2zM65 20h3v1h-3zM89 20h2v1h-2zM65 21h3v1h-3zM65 22h3v1h-3zM65 23h3v1h-3zM65 24h3v1h-3zM65 25h2v1h-2zM83 32h2v1h-2zM83 33h2v1h-2zM114 33h2v1h-2zM82 34h3v1h-3zM114 34h2v1h-2zM81 35h3v1h-3zM81 36h3v1h-3zM80 37h3v1h-3zM79 38h4v1h-4zM79 39h3v1h-3zM78 40h4v1h-4zM75 41h1v1h-1zM77 41h4v1h-4zM74 42h6v1h-6zM72 43h6v1h-6zM72 44h5v1h-5zM73 45h3v1h-3zM36 112h4v1h-4zM36 113h3v1h-3z"/><path fill="#2103FA" d="M68 18h1v1h-1zM68 19h1v1h-1zM68 20h1v1h-1zM68 21h1v1h-1zM68 22h1v1h-1zM68 23h1v1h-1zM76 30h1v1h-1zM80 30h2v1h-2zM80 31h4v1h-4zM79 32h4v1h-4zM71 33h1v1h-1zM78 33h5v1h-5zM71 34h1v1h-1zM77 34h5v1h-5zM70 35h2v1h-2zM76 35h5v1h-5zM70 36h2v1h-2zM75 36h6v1h-6zM70 37h10v1h-10zM70 38h9v1h-9zM70 39h9v1h-9zM70 40h8v1h-8zM70 41h5v1h-5zM76 41h1v1h-1zM71 42h3v1h-3zM89 107h3v1h-3zM92 108h1v1h-1z"/><path fill="#006EFF" d="M46 30h7v1h-7zM45 31h4v1h-4zM50 31h4v1h-4zM43 32h1v1h-1zM51 32h3v1h-3zM48 33h2v1h-2zM51 33h3v1h-3zM48 34h6v1h-6zM48 35h5v1h-5zM54 35h1v1h-1zM49 36h4v1h-4zM54 36h1v1h-1zM50 37h5v1h-5zM50 38h5v1h-5zM51 39h5v1h-5zM51 40h1v1h-1zM53 40h3v1h-3zM32 41h1v1h-1zM53 41h3v1h-3zM31 42h2v1h-2zM54 42h2v1h-2zM27 43h1v1h-1zM30 43h3v1h-3zM54 43h2v1h-2zM26 44h1v1h-1zM29 44h3v1h-3zM54 44h2v1h-2zM24 45h3v1h-3zM28 45h4v1h-4zM54 45h2v1h-2zM24 46h7v1h-7zM54 46h3v1h-3zM25 47h5v1h-5zM55 47h2v1h-2zM53 48h4v1h-4zM53 49h2v1h-2zM56 49h1v1h-1zM54 50h3v1h-3zM54 51h3v1h-3zM55 52h2v1h-2zM55 53h2v1h-2zM55 54h3v1h-3zM56 55h2v1h-2zM56 56h2v1h-2zM56 57h2v1h-2zM57 58h2v1h-2zM57 59h2v1h-2zM57 60h3v1h-3zM85 60h1v1h-1zM58 61h2v1h-2zM58 62h3v1h-3zM84 62h1v1h-1zM119 62h1v1h-1zM58 63h3v1h-3zM84 63h1v1h-1zM119 63h1v1h-1zM59 64h2v1h-2zM84 64h1v1h-1zM119 64h1v1h-1zM59 65h3v1h-3zM119 65h1v1h-1zM60 66h2v1h-2zM60 67h3v1h-3zM61 68h2v1h-2zM61 69h3v1h-3zM61 70h3v1h-3zM62 71h4v1h-4zM64 72h1v1h-1zM64 74h2v1h-2zM64 75h3v1h-3zM25 80h5v1h-5zM24 81h7v1h-7zM23 82h2v1h-2zM30 82h2v1h-2zM23 83h2v1h-2zM31 83h1v1h-1zM72 83h2v1h-2zM22 84h2v1h-2zM32 84h1v1h-1zM71 84h1v1h-1zM22 85h2v1h-2zM71 85h1v1h-1zM22 86h2v1h-2zM70 86h2v1h-2zM95 86h1v1h-1zM23 87h2v1h-2zM96 87h2v1h-2zM23 88h3v1h-3zM96 88h3v1h-3zM24 89h2v1h-2zM28 89h2v1h-2zM97 89h3v1h-3zM28 90h1v1h-1zM99 90h1v1h-1zM41 91h1v1h-1zM74 91h1v1h-1zM41 92h2v1h-2zM73 92h2v1h-2zM114 92h1v1h-1zM42 93h2v1h-2zM72 93h3v1h-3zM42 94h2v1h-2zM73 94h2v1h-2zM43 95h3v1h-3zM72 95h3v1h-3zM44 96h3v1h-3zM73 96h2v1h-2zM46 97h2v1h-2zM68 108h1v1h-1zM67 109h2v1h-2zM66 110h2v1h-2zM61 111h6v1h-6z"/><path fill="#9C00FF" d="M75 30h1v1h-1zM77 30h3v1h-3zM73 31h7v1h-7zM72 32h7v1h-7zM72 33h6v1h-6zM72 34h5v1h-5zM72 35h4v1h-4zM72 36h3v1h-3zM88 108h4v1h-4zM87 109h7v1h-7zM87 110h7v1h-7zM88 111h5v1h-5zM88 112h5v1h-5zM91 113h1v1h-1z"/><path fill="#0033FF" d="M49 31h1v1h-1zM44 32h7v1h-7zM43 33h5v1h-5zM50 33h1v1h-1zM42 34h6v1h-6zM42 35h6v1h-6zM41 36h8v1h-8zM41 37h4v1h-4zM47 37h3v1h-3zM41 38h9v1h-9zM41 39h2v1h-2zM46 39h1v1h-1zM49 39h2v1h-2zM50 40h1v1h-1zM52 40h1v1h-1zM51 41h2v1h-2zM51 42h3v1h-3zM51 43h3v1h-3zM51 44h3v1h-3zM52 45h2v1h-2zM52 46h2v1h-2zM50 47h5v1h-5zM52 48h1v1h-1zM55 55h1v1h-1zM91 55h4v1h-4zM55 56h1v1h-1zM88 56h9v1h-9zM55 57h1v1h-1zM87 57h5v1h-5zM96 57h3v1h-3zM55 58h2v1h-2zM86 58h6v1h-6zM97 58h3v1h-3zM56 59h1v1h-1zM86 59h6v1h-6zM98 59h2v1h-2zM56 60h1v1h-1zM86 60h6v1h-6zM99 60h2v1h-2zM13 61h1v1h-1zM56 61h2v1h-2zM85 61h5v1h-5zM99 61h2v1h-2zM13 62h1v1h-1zM56 62h2v1h-2zM85 62h5v1h-5zM98 62h3v1h-3zM13 63h2v1h-2zM56 63h2v1h-2zM85 63h4v1h-4zM99 63h3v1h-3zM14 64h1v1h-1zM57 64h2v1h-2zM85 64h4v1h-4zM99 64h3v1h-3zM57 65h2v1h-2zM84 65h4v1h-4zM100 65h1v1h-1zM58 66h2v1h-2zM85 66h3v1h-3zM58 67h2v1h-2zM85 67h1v1h-1zM59 68h2v1h-2zM28 69h1v1h-1zM59 69h2v1h-2zM59 70h2v1h-2zM60 71h2v1h-2zM62 74h2v1h-2zM62 75h2v1h-2zM95 84h2v1h-2zM95 85h3v1h-3zM96 86h3v1h-3zM105 86h1v1h-1zM69 87h2v1h-2zM98 87h2v1h-2zM41 88h1v1h-1zM69 88h1v1h-1zM99 88h3v1h-3zM41 89h2v1h-2zM100 89h4v1h-4zM41 90h2v1h-2zM100 90h2v1h-2zM42 91h1v1h-1zM71 92h1v1h-1zM12 93h2v1h-2zM71 93h1v1h-1zM12 94h2v1h-2zM72 94h1v1h-1zM47 96h2v1h-2zM48 97h2v1h-2zM67 103h1v1h-1zM66 104h3v1h-3zM65 105h4v1h-4zM59 106h1v1h-1zM63 106h6v1h-6zM59 107h10v1h-10zM59 108h9v1h-9zM59 109h8v1h-8zM60 110h6v1h-6z"/><path fill="#00C4FF" d="M54 31h1v1h-1zM54 32h2v1h-2zM54 33h3v1h-3zM54 34h3v1h-3zM53 35h1v1h-1zM55 35h2v1h-2zM53 36h1v1h-1zM55 36h3v1h-3zM55 37h3v1h-3zM55 38h3v1h-3zM97 38h1v1h-1zM30 39h2v1h-2zM56 39h2v1h-2zM96 39h4v1h-4zM29 40h3v1h-3zM56 40h2v1h-2zM96 40h4v1h-4zM28 41h4v1h-4zM56 41h2v1h-2zM95 41h4v1h-4zM22 42h9v1h-9zM56 42h1v1h-1zM95 42h3v1h-3zM22 43h5v1h-5zM28 43h2v1h-2zM56 43h1v1h-1zM95 43h4v1h-4zM100 43h1v1h-1zM23 44h3v1h-3zM27 44h2v1h-2zM56 44h1v1h-1zM96 44h6v1h-6zM23 45h1v1h-1zM27 45h1v1h-1zM56 45h1v1h-1zM96 45h6v1h-6zM97 46h7v1h-7zM98 47h5v1h-5zM57 48h1v1h-1zM55 49h1v1h-1zM57 49h1v1h-1zM57 50h2v1h-2zM57 51h2v1h-2zM57 52h2v1h-2zM57 53h3v1h-3zM58 54h2v1h-2zM58 55h2v1h-2zM58 56h3v1h-3zM58 57h3v1h-3zM59 58h2v1h-2zM59 59h3v1h-3zM60 60h2v1h-2zM60 61h2v1h-2zM115 61h4v1h-4zM61 62h2v1h-2zM114 62h5v1h-5zM61 63h2v1h-2zM113 63h6v1h-6zM61 64h3v1h-3zM113 64h6v1h-6zM62 65h2v1h-2zM114 65h5v1h-5zM62 66h3v1h-3zM115 66h4v1h-4zM63 67h3v1h-3zM63 68h3v1h-3zM64 69h3v1h-3zM64 70h5v1h-5zM71 70h3v1h-3zM66 71h4v1h-4zM71 71h3v1h-3zM65 72h5v1h-5zM72 72h1v1h-1zM67 73h4v1h-4zM66 74h5v1h-5zM67 75h2v1h-2zM75 81h1v1h-1zM73 82h5v1h-5zM30 83h1v1h-1zM74 83h1v1h-1zM76 83h2v1h-2zM84 83h1v1h-1zM31 84h1v1h-1zM72 84h1v1h-1zM76 84h3v1h-3zM31 85h2v1h-2zM72 85h1v1h-1zM76 85h4v1h-4zM31 86h2v1h-2zM75 86h5v1h-5zM30 87h2v1h-2zM75 87h4v1h-4zM29 88h3v1h-3zM75 88h2v1h-2zM26 89h2v1h-2zM30 89h1v1h-1zM74 89h2v1h-2zM26 90h2v1h-2zM74 90h2v1h-2zM75 91h2v1h-2zM75 92h2v1h-2zM75 93h2v1h-2zM114 93h2v1h-2zM75 94h2v1h-2zM114 94h2v1h-2zM75 95h2v1h-2zM75 96h2v1h-2zM75 97h2v1h-2z"/><path fill="#0017F7" d="M45 37h2v1h-2zM43 39h3v1h-3zM47 39h2v1h-2zM41 40h9v1h-9zM42 41h9v1h-9zM42 42h4v1h-4zM47 42h4v1h-4zM43 43h3v1h-3zM48 43h3v1h-3zM45 44h1v1h-1zM48 44h3v1h-3zM45 45h3v1h-3zM49 45h3v1h-3zM46 46h6v1h-6zM54 56h1v1h-1zM29 57h2v1h-2zM54 57h1v1h-1zM92 57h4v1h-4zM28 58h2v1h-2zM53 58h2v1h-2zM92 58h5v1h-5zM28 59h2v1h-2zM53 59h3v1h-3zM92 59h6v1h-6zM27 60h3v1h-3zM54 60h2v1h-2zM92 60h7v1h-7zM9 61h4v1h-4zM27 61h3v1h-3zM53 61h3v1h-3zM90 61h9v1h-9zM9 62h4v1h-4zM27 62h3v1h-3zM54 62h2v1h-2zM90 62h8v1h-8zM9 63h4v1h-4zM26 63h2v1h-2zM54 63h2v1h-2zM89 63h10v1h-10zM9 64h5v1h-5zM26 64h3v1h-3zM55 64h2v1h-2zM89 64h3v1h-3zM93 64h6v1h-6zM10 65h4v1h-4zM27 65h2v1h-2zM55 65h2v1h-2zM88 65h2v1h-2zM93 65h7v1h-7zM10 66h3v1h-3zM27 66h2v1h-2zM56 66h2v1h-2zM88 66h2v1h-2zM93 66h8v1h-8zM27 67h2v1h-2zM56 67h2v1h-2zM86 67h4v1h-4zM97 67h4v1h-4zM28 68h2v1h-2zM56 68h3v1h-3zM86 68h4v1h-4zM99 68h1v1h-1zM29 69h1v1h-1zM57 69h2v1h-2zM86 69h4v1h-4zM29 70h2v1h-2zM57 70h2v1h-2zM87 70h3v1h-3zM31 71h1v1h-1zM58 71h2v1h-2zM89 71h1v1h-1zM91 71h1v1h-1zM91 72h2v1h-2zM60 75h2v1h-2zM100 80h3v1h-3zM97 81h1v1h-1zM101 81h3v1h-3zM96 82h9v1h-9zM96 83h10v1h-10zM97 84h9v1h-9zM98 85h8v1h-8zM99 86h6v1h-6zM41 87h2v1h-2zM100 87h5v1h-5zM42 88h1v1h-1zM67 88h2v1h-2zM102 88h3v1h-3zM68 89h1v1h-1zM69 90h1v1h-1zM69 91h2v1h-2zM70 92h1v1h-1zM49 96h2v1h-2zM50 97h2v1h-2zM63 101h2v1h-2zM61 102h6v1h-6zM60 103h3v1h-3zM65 103h2v1h-2zM59 104h2v1h-2zM65 104h1v1h-1zM59 105h2v1h-2zM64 105h1v1h-1zM60 106h1v1h-1z"/><path fill="#0306A8" d="M46 42h1v1h-1zM46 43h2v1h-2zM43 44h2v1h-2zM46 44h2v1h-2zM48 45h1v1h-1zM33 55h1v1h-1zM31 56h2v1h-2zM31 57h2v1h-2zM30 58h3v1h-3zM30 59h3v1h-3zM30 60h3v1h-3zM52 60h2v1h-2zM30 61h3v1h-3zM52 61h1v1h-1zM8 62h1v1h-1zM30 62h3v1h-3zM52 62h2v1h-2zM8 63h1v1h-1zM28 63h5v1h-5zM52 63h2v1h-2zM8 64h1v1h-1zM29 64h4v1h-4zM52 64h3v1h-3zM92 64h1v1h-1zM8 65h2v1h-2zM29 65h3v1h-3zM53 65h2v1h-2zM90 65h3v1h-3zM9 66h1v1h-1zM29 66h3v1h-3zM53 66h3v1h-3zM90 66h3v1h-3zM29 67h4v1h-4zM53 67h3v1h-3zM90 67h7v1h-7zM30 68h3v1h-3zM54 68h2v1h-2zM90 68h9v1h-9zM30 69h3v1h-3zM54 69h3v1h-3zM90 69h10v1h-10zM31 70h3v1h-3zM55 70h2v1h-2zM90 70h9v1h-9zM32 71h2v1h-2zM55 71h1v1h-1zM57 71h1v1h-1zM90 71h1v1h-1zM92 71h5v1h-5zM33 72h3v1h-3zM56 72h1v1h-1zM93 72h2v1h-2zM59 75h1v1h-1zM59 76h3v1h-3zM98 80h2v1h-2zM98 81h3v1h-3zM43 83h1v1h-1zM43 84h2v1h-2zM42 85h2v1h-2zM42 86h2v1h-2zM66 89h2v1h-2zM67 90h2v1h-2zM53 95h1v1h-1zM51 96h4v1h-4zM52 97h1v1h-1z"/><path fill="#010540" d="M34 55h3v1h-3zM33 56h5v1h-5zM33 57h4v1h-4zM33 58h4v1h-4zM33 59h3v1h-3zM33 60h4v1h-4zM33 61h4v1h-4zM33 62h3v1h-3zM33 63h3v1h-3zM33 64h3v1h-3zM32 65h5v1h-5zM52 65h1v1h-1zM32 66h5v1h-5zM52 66h1v1h-1zM33 67h4v1h-4zM52 67h1v1h-1zM33 68h4v1h-4zM53 68h1v1h-1zM33 69h5v1h-5zM53 69h1v1h-1zM34 70h4v1h-4zM54 70h1v1h-1zM34 71h4v1h-4zM54 71h1v1h-1zM36 72h1v1h-1zM55 72h1v1h-1zM55 73h2v1h-2zM55 74h2v1h-2zM56 75h1v1h-1zM58 76h1v1h-1zM57 77h2v1h-2zM45 82h1v1h-1zM44 83h2v1h-2zM61 89h5v1h-5zM61 90h1v1h-1zM57 91h2v1h-2zM56 92h2v1h-2zM55 93h2v1h-2zM55 94h2v1h-2zM54 95h2v1h-2z"/><path fill="#B3FF03" d="M38 56h2v1h-2zM37 57h4v1h-4zM37 58h5v1h-5zM36 59h4v1h-4zM37 60h2v1h-2zM37 61h3v1h-3zM36 62h4v1h-4zM36 63h4v1h-4zM36 64h4v1h-4zM37 65h3v1h-3zM37 66h3v1h-3zM37 67h3v1h-3zM37 68h3v1h-3zM38 69h3v1h-3zM38 70h3v1h-3zM38 71h1v1h-1zM55 75h1v1h-1zM55 76h2v1h-2zM54 77h2v1h-2zM54 78h4v1h-4zM54 79h3v1h-3zM51 80h3v1h-3zM55 80h2v1h-2zM46 81h7v1h-7zM55 81h2v1h-2zM46 82h5v1h-5zM55 82h2v1h-2zM55 83h2v1h-2zM55 84h2v1h-2zM55 85h2v1h-2zM56 86h2v1h-2zM57 87h2v1h-2zM58 88h2v1h-2zM59 89h2v1h-2zM58 90h3v1h-3zM59 91h1v1h-1z"/><path fill="#0D1CFA" d="M40 59h2v1h-2zM39 60h4v1h-4zM40 61h3v1h-3zM40 62h4v1h-4zM40 63h4v1h-4zM40 64h4v1h-4zM40 65h4v1h-4zM40 66h3v1h-3zM40 67h3v1h-3zM40 68h2v1h-2zM41 69h1v1h-1zM53 79h1v1h-1z"/><path fill="#FAFEFD" d="M56 71h1v1h-1zM57 72h6v1h-6zM57 73h6v1h-6zM66 73h1v1h-1zM57 74h5v1h-5zM57 75h2v1h-2zM57 76h1v1h-1zM54 81h1v1h-1zM27 82h3v1h-3zM54 82h1v1h-1zM27 83h3v1h-3zM46 83h2v1h-2zM54 83h1v1h-1zM75 83h1v1h-1zM27 84h3v1h-3zM45 84h3v1h-3zM54 84h1v1h-1zM73 84h2v1h-2zM27 85h3v1h-3zM44 85h4v1h-4zM54 85h1v1h-1zM73 85h2v1h-2zM27 86h3v1h-3zM44 86h4v1h-4zM54 86h2v1h-2zM72 86h3v1h-3zM25 87h2v1h-2zM43 87h5v1h-5zM54 87h3v1h-3zM72 87h3v1h-3zM26 88h1v1h-1zM43 88h5v1h-5zM54 88h4v1h-4zM72 88h3v1h-3zM43 89h5v1h-5zM54 89h5v1h-5zM72 89h2v1h-2zM48 90h6v1h-6zM57 90h1v1h-1zM70 90h2v1h-2zM48 91h6v1h-6zM71 91h1v1h-1zM48 92h6v1h-6zM48 93h6v1h-6zM48 94h6v1h-6zM48 95h5v1h-5zM36 109h3v1h-3zM36 110h3v1h-3z"/><path fill="#010319" d="M63 72h1v1h-1zM63 73h3v1h-3zM56 77h1v1h-1zM54 80h1v1h-1zM53 81h1v1h-1zM25 82h2v1h-2zM51 82h3v1h-3zM25 83h2v1h-2zM48 83h6v1h-6zM24 84h3v1h-3zM30 84h1v1h-1zM48 84h6v1h-6zM75 84h1v1h-1zM24 85h3v1h-3zM30 85h1v1h-1zM48 85h6v1h-6zM75 85h1v1h-1zM24 86h3v1h-3zM30 86h1v1h-1zM48 86h6v1h-6zM27 87h3v1h-3zM48 87h6v1h-6zM71 87h1v1h-1zM27 88h2v1h-2zM48 88h6v1h-6zM70 88h2v1h-2zM48 89h6v1h-6zM69 89h3v1h-3zM43 90h5v1h-5zM54 90h3v1h-3zM72 90h2v1h-2zM43 91h5v1h-5zM54 91h3v1h-3zM72 91h2v1h-2zM43 92h5v1h-5zM54 92h2v1h-2zM72 92h1v1h-1zM44 93h4v1h-4zM54 93h1v1h-1zM44 94h4v1h-4zM54 94h1v1h-1zM46 95h2v1h-2zM63 103h2v1h-2zM61 104h4v1h-4zM61 105h3v1h-3zM61 106h2v1h-2zM37 111h2v1h-2z"/><path fill="#FF00EB" d="M87 111h1v1h-1zM89 113h2v1h-2z"/></svg>